<mxfile host="app.diagrams.net" agent="Mozilla/5.0 (Windows NT 10.0; Win64; x64) AppleWebKit/537.36 (KHTML, like Gecko) Chrome/134.0.0.0 Safari/537.36 Edg/134.0.0.0" version="26.1.1" pages="3">
  <diagram id="uHuykYXgIaJ8YomX9k_Y" name="Packages">
    <mxGraphModel dx="1316" dy="710" grid="1" gridSize="10" guides="1" tooltips="1" connect="1" arrows="1" fold="1" page="1" pageScale="1" pageWidth="1169" pageHeight="827" math="0" shadow="0">
      <root>
        <mxCell id="0" />
        <mxCell id="1" parent="0" />
        <mxCell id="u0d4F03fjxQOdMYpKEC0-13" style="rounded=0;orthogonalLoop=1;jettySize=auto;html=1;edgeStyle=orthogonalEdgeStyle;endArrow=none;startFill=0;" parent="1" source="u0d4F03fjxQOdMYpKEC0-1" target="u0d4F03fjxQOdMYpKEC0-2" edge="1">
          <mxGeometry relative="1" as="geometry">
            <Array as="points">
              <mxPoint x="705" y="260" />
            </Array>
          </mxGeometry>
        </mxCell>
        <mxCell id="u0d4F03fjxQOdMYpKEC0-14" value="Main character can craft items" style="edgeLabel;html=1;align=center;verticalAlign=middle;resizable=0;points=[];" parent="u0d4F03fjxQOdMYpKEC0-13" vertex="1" connectable="0">
          <mxGeometry x="-0.0306" y="1" relative="1" as="geometry">
            <mxPoint x="86" y="-63" as="offset" />
          </mxGeometry>
        </mxCell>
        <mxCell id="u0d4F03fjxQOdMYpKEC0-15" style="edgeStyle=orthogonalEdgeStyle;rounded=0;orthogonalLoop=1;jettySize=auto;html=1;endArrow=none;startFill=0;" parent="1" source="u0d4F03fjxQOdMYpKEC0-1" target="u0d4F03fjxQOdMYpKEC0-3" edge="1">
          <mxGeometry relative="1" as="geometry" />
        </mxCell>
        <mxCell id="u0d4F03fjxQOdMYpKEC0-16" value="Main character can plant, farm, ..." style="edgeLabel;html=1;align=center;verticalAlign=middle;resizable=0;points=[];" parent="u0d4F03fjxQOdMYpKEC0-15" vertex="1" connectable="0">
          <mxGeometry x="-0.081" y="-2" relative="1" as="geometry">
            <mxPoint y="-13" as="offset" />
          </mxGeometry>
        </mxCell>
        <mxCell id="u0d4F03fjxQOdMYpKEC0-23" style="edgeStyle=orthogonalEdgeStyle;rounded=0;orthogonalLoop=1;jettySize=auto;html=1;endArrow=none;startFill=0;" parent="1" source="u0d4F03fjxQOdMYpKEC0-1" target="u0d4F03fjxQOdMYpKEC0-8" edge="1">
          <mxGeometry relative="1" as="geometry">
            <Array as="points">
              <mxPoint x="680" y="575" />
            </Array>
          </mxGeometry>
        </mxCell>
        <mxCell id="u0d4F03fjxQOdMYpKEC0-1" value="Characters" style="shape=folder;fontStyle=1;spacingTop=10;tabWidth=40;tabHeight=14;tabPosition=left;html=1;whiteSpace=wrap;" parent="1" vertex="1">
          <mxGeometry x="640" y="400" width="130" height="70" as="geometry" />
        </mxCell>
        <mxCell id="u0d4F03fjxQOdMYpKEC0-2" value="Crafting" style="shape=folder;fontStyle=1;spacingTop=10;tabWidth=40;tabHeight=14;tabPosition=left;html=1;whiteSpace=wrap;" parent="1" vertex="1">
          <mxGeometry x="640" y="130" width="130" height="70" as="geometry" />
        </mxCell>
        <mxCell id="u0d4F03fjxQOdMYpKEC0-24" style="edgeStyle=orthogonalEdgeStyle;rounded=0;orthogonalLoop=1;jettySize=auto;html=1;endArrow=none;startFill=0;" parent="1" source="u0d4F03fjxQOdMYpKEC0-3" target="u0d4F03fjxQOdMYpKEC0-8" edge="1">
          <mxGeometry relative="1" as="geometry">
            <Array as="points">
              <mxPoint x="345" y="570" />
            </Array>
          </mxGeometry>
        </mxCell>
        <mxCell id="u0d4F03fjxQOdMYpKEC0-35" style="edgeStyle=orthogonalEdgeStyle;rounded=0;orthogonalLoop=1;jettySize=auto;html=1;" parent="1" source="u0d4F03fjxQOdMYpKEC0-3" target="u0d4F03fjxQOdMYpKEC0-11" edge="1">
          <mxGeometry relative="1" as="geometry">
            <Array as="points">
              <mxPoint x="345" y="320" />
            </Array>
          </mxGeometry>
        </mxCell>
        <mxCell id="u0d4F03fjxQOdMYpKEC0-3" value="Agriculture" style="shape=folder;fontStyle=1;spacingTop=10;tabWidth=40;tabHeight=14;tabPosition=left;html=1;whiteSpace=wrap;" parent="1" vertex="1">
          <mxGeometry x="280" y="400" width="130" height="70" as="geometry" />
        </mxCell>
        <mxCell id="u0d4F03fjxQOdMYpKEC0-26" style="edgeStyle=orthogonalEdgeStyle;rounded=0;orthogonalLoop=1;jettySize=auto;html=1;endArrow=none;startFill=1;startArrow=classic;" parent="1" source="u0d4F03fjxQOdMYpKEC0-4" target="u0d4F03fjxQOdMYpKEC0-7" edge="1">
          <mxGeometry relative="1" as="geometry">
            <Array as="points">
              <mxPoint x="80" y="255" />
            </Array>
          </mxGeometry>
        </mxCell>
        <mxCell id="u0d4F03fjxQOdMYpKEC0-27" value="Some events depend on time" style="edgeLabel;html=1;align=center;verticalAlign=middle;resizable=0;points=[];" parent="u0d4F03fjxQOdMYpKEC0-26" vertex="1" connectable="0">
          <mxGeometry x="0.114" y="-1" relative="1" as="geometry">
            <mxPoint x="86" y="-84" as="offset" />
          </mxGeometry>
        </mxCell>
        <mxCell id="u0d4F03fjxQOdMYpKEC0-28" style="edgeStyle=orthogonalEdgeStyle;rounded=0;orthogonalLoop=1;jettySize=auto;html=1;endArrow=none;startFill=0;" parent="1" source="u0d4F03fjxQOdMYpKEC0-4" target="u0d4F03fjxQOdMYpKEC0-6" edge="1">
          <mxGeometry relative="1" as="geometry" />
        </mxCell>
        <mxCell id="u0d4F03fjxQOdMYpKEC0-30" style="edgeStyle=orthogonalEdgeStyle;rounded=0;orthogonalLoop=1;jettySize=auto;html=1;" parent="1" source="u0d4F03fjxQOdMYpKEC0-4" target="u0d4F03fjxQOdMYpKEC0-9" edge="1">
          <mxGeometry relative="1" as="geometry">
            <Array as="points">
              <mxPoint x="85" y="90" />
            </Array>
          </mxGeometry>
        </mxCell>
        <mxCell id="u0d4F03fjxQOdMYpKEC0-37" style="edgeStyle=orthogonalEdgeStyle;rounded=0;orthogonalLoop=1;jettySize=auto;html=1;" parent="1" source="u0d4F03fjxQOdMYpKEC0-4" target="u0d4F03fjxQOdMYpKEC0-11" edge="1">
          <mxGeometry relative="1" as="geometry">
            <Array as="points">
              <mxPoint x="70" y="20" />
              <mxPoint x="1050" y="20" />
            </Array>
          </mxGeometry>
        </mxCell>
        <mxCell id="u0d4F03fjxQOdMYpKEC0-4" value="Quest And Event" style="shape=folder;fontStyle=1;spacingTop=10;tabWidth=40;tabHeight=14;tabPosition=left;html=1;whiteSpace=wrap;" parent="1" vertex="1">
          <mxGeometry x="20" y="210" width="130" height="70" as="geometry" />
        </mxCell>
        <mxCell id="u0d4F03fjxQOdMYpKEC0-17" style="edgeStyle=orthogonalEdgeStyle;rounded=0;orthogonalLoop=1;jettySize=auto;html=1;endArrow=none;startFill=0;" parent="1" source="u0d4F03fjxQOdMYpKEC0-5" target="u0d4F03fjxQOdMYpKEC0-1" edge="1">
          <mxGeometry relative="1" as="geometry" />
        </mxCell>
        <mxCell id="u0d4F03fjxQOdMYpKEC0-18" value="Main character can raise animals" style="edgeLabel;html=1;align=center;verticalAlign=middle;resizable=0;points=[];" parent="u0d4F03fjxQOdMYpKEC0-17" vertex="1" connectable="0">
          <mxGeometry x="-0.6422" y="1" relative="1" as="geometry">
            <mxPoint x="42" y="-14" as="offset" />
          </mxGeometry>
        </mxCell>
        <mxCell id="u0d4F03fjxQOdMYpKEC0-25" style="edgeStyle=orthogonalEdgeStyle;rounded=0;orthogonalLoop=1;jettySize=auto;html=1;endArrow=none;startFill=0;" parent="1" source="u0d4F03fjxQOdMYpKEC0-5" target="u0d4F03fjxQOdMYpKEC0-8" edge="1">
          <mxGeometry relative="1" as="geometry">
            <Array as="points">
              <mxPoint x="345" y="590" />
            </Array>
          </mxGeometry>
        </mxCell>
        <mxCell id="u0d4F03fjxQOdMYpKEC0-34" style="edgeStyle=orthogonalEdgeStyle;rounded=0;orthogonalLoop=1;jettySize=auto;html=1;" parent="1" source="u0d4F03fjxQOdMYpKEC0-5" target="u0d4F03fjxQOdMYpKEC0-11" edge="1">
          <mxGeometry relative="1" as="geometry">
            <Array as="points">
              <mxPoint x="1050" y="740" />
            </Array>
          </mxGeometry>
        </mxCell>
        <mxCell id="u0d4F03fjxQOdMYpKEC0-5" value="Livestock" style="shape=folder;fontStyle=1;spacingTop=10;tabWidth=40;tabHeight=14;tabPosition=left;html=1;whiteSpace=wrap;" parent="1" vertex="1">
          <mxGeometry x="280" y="690" width="130" height="70" as="geometry" />
        </mxCell>
        <mxCell id="u0d4F03fjxQOdMYpKEC0-29" style="edgeStyle=orthogonalEdgeStyle;rounded=0;orthogonalLoop=1;jettySize=auto;html=1;endArrow=none;startFill=0;" parent="1" source="u0d4F03fjxQOdMYpKEC0-6" target="u0d4F03fjxQOdMYpKEC0-1" edge="1">
          <mxGeometry relative="1" as="geometry">
            <Array as="points">
              <mxPoint x="670" y="245" />
            </Array>
          </mxGeometry>
        </mxCell>
        <mxCell id="u0d4F03fjxQOdMYpKEC0-6" value="Community" style="shape=folder;fontStyle=1;spacingTop=10;tabWidth=40;tabHeight=14;tabPosition=left;html=1;whiteSpace=wrap;" parent="1" vertex="1">
          <mxGeometry x="370" y="210" width="130" height="70" as="geometry" />
        </mxCell>
        <mxCell id="u0d4F03fjxQOdMYpKEC0-19" style="edgeStyle=orthogonalEdgeStyle;rounded=0;orthogonalLoop=1;jettySize=auto;html=1;" parent="1" source="u0d4F03fjxQOdMYpKEC0-7" target="u0d4F03fjxQOdMYpKEC0-3" edge="1">
          <mxGeometry relative="1" as="geometry">
            <Array as="points">
              <mxPoint x="105" y="440" />
            </Array>
          </mxGeometry>
        </mxCell>
        <mxCell id="u0d4F03fjxQOdMYpKEC0-21" value="Time, environment can&amp;nbsp;&lt;div&gt;affect to agriculture&lt;/div&gt;" style="edgeLabel;html=1;align=center;verticalAlign=middle;resizable=0;points=[];" parent="u0d4F03fjxQOdMYpKEC0-19" vertex="1" connectable="0">
          <mxGeometry x="-0.121" y="-1" relative="1" as="geometry">
            <mxPoint x="44" y="29" as="offset" />
          </mxGeometry>
        </mxCell>
        <mxCell id="u0d4F03fjxQOdMYpKEC0-20" style="edgeStyle=orthogonalEdgeStyle;rounded=0;orthogonalLoop=1;jettySize=auto;html=1;" parent="1" source="u0d4F03fjxQOdMYpKEC0-7" target="u0d4F03fjxQOdMYpKEC0-5" edge="1">
          <mxGeometry relative="1" as="geometry">
            <Array as="points">
              <mxPoint x="105" y="725" />
            </Array>
          </mxGeometry>
        </mxCell>
        <mxCell id="u0d4F03fjxQOdMYpKEC0-22" value="Time, environment can affect to livestock" style="edgeLabel;html=1;align=center;verticalAlign=middle;resizable=0;points=[];" parent="u0d4F03fjxQOdMYpKEC0-20" vertex="1" connectable="0">
          <mxGeometry x="-0.0551" y="-1" relative="1" as="geometry">
            <mxPoint x="13" y="14" as="offset" />
          </mxGeometry>
        </mxCell>
        <mxCell id="u0d4F03fjxQOdMYpKEC0-7" value="Environment" style="shape=folder;fontStyle=1;spacingTop=10;tabWidth=40;tabHeight=14;tabPosition=left;html=1;whiteSpace=wrap;" parent="1" vertex="1">
          <mxGeometry x="40" y="540" width="130" height="70" as="geometry" />
        </mxCell>
        <mxCell id="u0d4F03fjxQOdMYpKEC0-31" style="edgeStyle=orthogonalEdgeStyle;rounded=0;orthogonalLoop=1;jettySize=auto;html=1;endArrow=none;startFill=0;" parent="1" source="u0d4F03fjxQOdMYpKEC0-8" target="u0d4F03fjxQOdMYpKEC0-12" edge="1">
          <mxGeometry relative="1" as="geometry">
            <Array as="points">
              <mxPoint x="760" y="590" />
              <mxPoint x="760" y="590" />
            </Array>
          </mxGeometry>
        </mxCell>
        <mxCell id="u0d4F03fjxQOdMYpKEC0-33" style="edgeStyle=orthogonalEdgeStyle;rounded=0;orthogonalLoop=1;jettySize=auto;html=1;" parent="1" source="u0d4F03fjxQOdMYpKEC0-8" target="u0d4F03fjxQOdMYpKEC0-11" edge="1">
          <mxGeometry relative="1" as="geometry">
            <Array as="points">
              <mxPoint x="535" y="500" />
              <mxPoint x="1050" y="500" />
            </Array>
          </mxGeometry>
        </mxCell>
        <mxCell id="u0d4F03fjxQOdMYpKEC0-8" value="Economy" style="shape=folder;fontStyle=1;spacingTop=10;tabWidth=40;tabHeight=14;tabPosition=left;html=1;whiteSpace=wrap;" parent="1" vertex="1">
          <mxGeometry x="470" y="540" width="130" height="70" as="geometry" />
        </mxCell>
        <mxCell id="u0d4F03fjxQOdMYpKEC0-36" style="edgeStyle=orthogonalEdgeStyle;rounded=0;orthogonalLoop=1;jettySize=auto;html=1;" parent="1" source="u0d4F03fjxQOdMYpKEC0-9" target="u0d4F03fjxQOdMYpKEC0-11" edge="1">
          <mxGeometry relative="1" as="geometry" />
        </mxCell>
        <mxCell id="u0d4F03fjxQOdMYpKEC0-9" value="NPC Behavior" style="shape=folder;fontStyle=1;spacingTop=10;tabWidth=40;tabHeight=14;tabPosition=left;html=1;whiteSpace=wrap;" parent="1" vertex="1">
          <mxGeometry x="370" y="50" width="130" height="70" as="geometry" />
        </mxCell>
        <mxCell id="u0d4F03fjxQOdMYpKEC0-10" value="Instruction" style="shape=folder;fontStyle=1;spacingTop=10;tabWidth=40;tabHeight=14;tabPosition=left;html=1;whiteSpace=wrap;" parent="1" vertex="1">
          <mxGeometry x="80" y="840" width="130" height="70" as="geometry" />
        </mxCell>
        <mxCell id="u0d4F03fjxQOdMYpKEC0-11" value="Reward And Achievement" style="shape=folder;fontStyle=1;spacingTop=10;tabWidth=40;tabHeight=14;tabPosition=left;html=1;whiteSpace=wrap;" parent="1" vertex="1">
          <mxGeometry x="950" y="280" width="200" height="70" as="geometry" />
        </mxCell>
        <mxCell id="u0d4F03fjxQOdMYpKEC0-32" style="edgeStyle=orthogonalEdgeStyle;rounded=0;orthogonalLoop=1;jettySize=auto;html=1;" parent="1" source="u0d4F03fjxQOdMYpKEC0-12" target="u0d4F03fjxQOdMYpKEC0-11" edge="1">
          <mxGeometry relative="1" as="geometry">
            <Array as="points">
              <mxPoint x="1050" y="580" />
            </Array>
          </mxGeometry>
        </mxCell>
        <mxCell id="u0d4F03fjxQOdMYpKEC0-12" value="Construction" style="shape=folder;fontStyle=1;spacingTop=10;tabWidth=40;tabHeight=14;tabPosition=left;html=1;whiteSpace=wrap;" parent="1" vertex="1">
          <mxGeometry x="870" y="540" width="130" height="70" as="geometry" />
        </mxCell>
        <mxCell id="nrmqfRigAzVjR5Y-e2Eu-2" value="Management" style="shape=folder;fontStyle=1;spacingTop=10;tabWidth=40;tabHeight=14;tabPosition=left;html=1;whiteSpace=wrap;" vertex="1" parent="1">
          <mxGeometry x="290" y="840" width="130" height="70" as="geometry" />
        </mxCell>
      </root>
    </mxGraphModel>
  </diagram>
  <diagram id="HO6psxOopRtTaPq3jSwU" name="Page-2">
    <mxGraphModel dx="2554" dy="1574" grid="1" gridSize="10" guides="1" tooltips="1" connect="1" arrows="1" fold="1" page="1" pageScale="1" pageWidth="1169" pageHeight="827" math="0" shadow="0">
      <root>
        <mxCell id="0" />
        <mxCell id="1" parent="0" />
        <mxCell id="zOyCUMjI-DACBVfXXY2o-1" value="Characters" style="swimlane;whiteSpace=wrap;html=1;" parent="1" vertex="1">
          <mxGeometry x="-470" y="-520" width="1055" height="1260" as="geometry" />
        </mxCell>
        <mxCell id="bju6o1A8lPEfDlK_xBNU-12" value="PlayerState.cs" style="swimlane;whiteSpace=wrap;html=1;" parent="zOyCUMjI-DACBVfXXY2o-1" vertex="1">
          <mxGeometry x="30" y="70" width="320" height="300" as="geometry" />
        </mxCell>
        <mxCell id="bju6o1A8lPEfDlK_xBNU-13" value="&lt;p style=&quot;margin:0px;margin-top:4px;text-align:center;&quot;&gt;&lt;b&gt;PlayerIdlingState&lt;/b&gt;&lt;/p&gt;" style="verticalAlign=top;align=left;overflow=fill;html=1;whiteSpace=wrap;" parent="bju6o1A8lPEfDlK_xBNU-12" vertex="1">
          <mxGeometry x="10" y="40" width="140" height="40" as="geometry" />
        </mxCell>
        <mxCell id="bju6o1A8lPEfDlK_xBNU-14" value="&lt;p style=&quot;margin:0px;margin-top:4px;text-align:center;&quot;&gt;&lt;b&gt;PlayerRunningState&lt;/b&gt;&lt;/p&gt;" style="verticalAlign=top;align=left;overflow=fill;html=1;whiteSpace=wrap;" parent="bju6o1A8lPEfDlK_xBNU-12" vertex="1">
          <mxGeometry x="10" y="140" width="140" height="40" as="geometry" />
        </mxCell>
        <mxCell id="bju6o1A8lPEfDlK_xBNU-15" value="&lt;p style=&quot;margin:0px;margin-top:4px;text-align:center;&quot;&gt;&lt;b&gt;PlayerMovingState&lt;/b&gt;&lt;/p&gt;" style="verticalAlign=top;align=left;overflow=fill;html=1;whiteSpace=wrap;" parent="bju6o1A8lPEfDlK_xBNU-12" vertex="1">
          <mxGeometry x="10" y="90" width="140" height="40" as="geometry" />
        </mxCell>
        <mxCell id="bju6o1A8lPEfDlK_xBNU-16" value="&lt;p style=&quot;margin:0px;margin-top:4px;text-align:center;&quot;&gt;&lt;b&gt;PlayerHoeingState&lt;/b&gt;&lt;/p&gt;" style="verticalAlign=top;align=left;overflow=fill;html=1;whiteSpace=wrap;" parent="bju6o1A8lPEfDlK_xBNU-12" vertex="1">
          <mxGeometry x="10" y="190" width="140" height="40" as="geometry" />
        </mxCell>
        <mxCell id="bju6o1A8lPEfDlK_xBNU-17" value="&lt;p style=&quot;margin:0px;margin-top:4px;text-align:center;&quot;&gt;&lt;b&gt;PlayerPlantingState&lt;/b&gt;&lt;/p&gt;" style="verticalAlign=top;align=left;overflow=fill;html=1;whiteSpace=wrap;" parent="bju6o1A8lPEfDlK_xBNU-12" vertex="1">
          <mxGeometry x="170" y="40" width="140" height="40" as="geometry" />
        </mxCell>
        <mxCell id="bju6o1A8lPEfDlK_xBNU-18" value="&lt;p style=&quot;margin:0px;margin-top:4px;text-align:center;&quot;&gt;&lt;b&gt;PlayerWateringState&lt;/b&gt;&lt;/p&gt;" style="verticalAlign=top;align=left;overflow=fill;html=1;whiteSpace=wrap;" parent="bju6o1A8lPEfDlK_xBNU-12" vertex="1">
          <mxGeometry x="170" y="90" width="140" height="40" as="geometry" />
        </mxCell>
        <mxCell id="bju6o1A8lPEfDlK_xBNU-19" value="&lt;p style=&quot;margin:0px;margin-top:4px;text-align:center;&quot;&gt;&lt;b&gt;PlayerFishingState&lt;/b&gt;&lt;/p&gt;" style="verticalAlign=top;align=left;overflow=fill;html=1;whiteSpace=wrap;" parent="bju6o1A8lPEfDlK_xBNU-12" vertex="1">
          <mxGeometry x="170" y="140" width="140" height="40" as="geometry" />
        </mxCell>
        <mxCell id="bju6o1A8lPEfDlK_xBNU-20" value="&lt;p style=&quot;margin:0px;margin-top:4px;text-align:center;&quot;&gt;&lt;b&gt;PlayerTalkingState&lt;/b&gt;&lt;/p&gt;" style="verticalAlign=top;align=left;overflow=fill;html=1;whiteSpace=wrap;" parent="bju6o1A8lPEfDlK_xBNU-12" vertex="1">
          <mxGeometry x="170" y="190" width="140" height="40" as="geometry" />
        </mxCell>
        <mxCell id="bju6o1A8lPEfDlK_xBNU-21" value="&lt;p style=&quot;margin:0px;margin-top:4px;text-align:center;&quot;&gt;&lt;b&gt;PlayerEatingState&lt;/b&gt;&lt;/p&gt;" style="verticalAlign=top;align=left;overflow=fill;html=1;whiteSpace=wrap;" parent="bju6o1A8lPEfDlK_xBNU-12" vertex="1">
          <mxGeometry x="10" y="240" width="140" height="40" as="geometry" />
        </mxCell>
        <mxCell id="bju6o1A8lPEfDlK_xBNU-22" value="&lt;p style=&quot;margin:0px;margin-top:4px;text-align:center;&quot;&gt;&lt;b&gt;PlayerCraftingState&lt;/b&gt;&lt;/p&gt;" style="verticalAlign=top;align=left;overflow=fill;html=1;whiteSpace=wrap;" parent="bju6o1A8lPEfDlK_xBNU-12" vertex="1">
          <mxGeometry x="170" y="240" width="140" height="40" as="geometry" />
        </mxCell>
        <mxCell id="bju6o1A8lPEfDlK_xBNU-23" value="CharacterController" style="swimlane;fontStyle=1;align=center;verticalAlign=top;childLayout=stackLayout;horizontal=1;startSize=26;horizontalStack=0;resizeParent=1;resizeParentMax=0;resizeLast=0;collapsible=1;marginBottom=0;whiteSpace=wrap;html=1;" parent="zOyCUMjI-DACBVfXXY2o-1" vertex="1">
          <mxGeometry x="30" y="590" width="400" height="658" as="geometry" />
        </mxCell>
        <mxCell id="xm2dH1QjAM5IwSRC4I6v-25" value="hat: &lt;b&gt;Hat&lt;/b&gt;" style="text;strokeColor=none;fillColor=none;align=left;verticalAlign=top;spacingLeft=4;spacingRight=4;overflow=hidden;rotatable=0;points=[[0,0.5],[1,0.5]];portConstraint=eastwest;whiteSpace=wrap;html=1;" parent="bju6o1A8lPEfDlK_xBNU-23" vertex="1">
          <mxGeometry y="26" width="400" height="26" as="geometry" />
        </mxCell>
        <mxCell id="xm2dH1QjAM5IwSRC4I6v-29" value="shirt: &lt;b&gt;Shirt&lt;/b&gt;" style="text;strokeColor=none;fillColor=none;align=left;verticalAlign=top;spacingLeft=4;spacingRight=4;overflow=hidden;rotatable=0;points=[[0,0.5],[1,0.5]];portConstraint=eastwest;whiteSpace=wrap;html=1;" parent="bju6o1A8lPEfDlK_xBNU-23" vertex="1">
          <mxGeometry y="52" width="400" height="26" as="geometry" />
        </mxCell>
        <mxCell id="xm2dH1QjAM5IwSRC4I6v-28" value="pant: &lt;b&gt;Pant&lt;/b&gt;" style="text;strokeColor=none;fillColor=none;align=left;verticalAlign=top;spacingLeft=4;spacingRight=4;overflow=hidden;rotatable=0;points=[[0,0.5],[1,0.5]];portConstraint=eastwest;whiteSpace=wrap;html=1;" parent="bju6o1A8lPEfDlK_xBNU-23" vertex="1">
          <mxGeometry y="78" width="400" height="26" as="geometry" />
        </mxCell>
        <mxCell id="xm2dH1QjAM5IwSRC4I6v-34" value="shoes: &lt;b&gt;Shoes&lt;/b&gt;" style="text;strokeColor=none;fillColor=none;align=left;verticalAlign=top;spacingLeft=4;spacingRight=4;overflow=hidden;rotatable=0;points=[[0,0.5],[1,0.5]];portConstraint=eastwest;whiteSpace=wrap;html=1;" parent="bju6o1A8lPEfDlK_xBNU-23" vertex="1">
          <mxGeometry y="104" width="400" height="26" as="geometry" />
        </mxCell>
        <mxCell id="xm2dH1QjAM5IwSRC4I6v-33" value="moveSpeed: &lt;b&gt;float&lt;/b&gt;" style="text;strokeColor=none;fillColor=none;align=left;verticalAlign=top;spacingLeft=4;spacingRight=4;overflow=hidden;rotatable=0;points=[[0,0.5],[1,0.5]];portConstraint=eastwest;whiteSpace=wrap;html=1;" parent="bju6o1A8lPEfDlK_xBNU-23" vertex="1">
          <mxGeometry y="130" width="400" height="26" as="geometry" />
        </mxCell>
        <mxCell id="xm2dH1QjAM5IwSRC4I6v-32" value="stamina: &lt;b&gt;float&lt;/b&gt;" style="text;strokeColor=none;fillColor=none;align=left;verticalAlign=top;spacingLeft=4;spacingRight=4;overflow=hidden;rotatable=0;points=[[0,0.5],[1,0.5]];portConstraint=eastwest;whiteSpace=wrap;html=1;" parent="bju6o1A8lPEfDlK_xBNU-23" vertex="1">
          <mxGeometry y="156" width="400" height="26" as="geometry" />
        </mxCell>
        <mxCell id="xm2dH1QjAM5IwSRC4I6v-31" value="gender: &lt;b&gt;bool&lt;/b&gt;" style="text;strokeColor=none;fillColor=none;align=left;verticalAlign=top;spacingLeft=4;spacingRight=4;overflow=hidden;rotatable=0;points=[[0,0.5],[1,0.5]];portConstraint=eastwest;whiteSpace=wrap;html=1;" parent="bju6o1A8lPEfDlK_xBNU-23" vertex="1">
          <mxGeometry y="182" width="400" height="26" as="geometry" />
        </mxCell>
        <mxCell id="xm2dH1QjAM5IwSRC4I6v-30" value="playerScriptableObj: &lt;b&gt;PlayerScriptableObject&lt;/b&gt;" style="text;strokeColor=none;fillColor=none;align=left;verticalAlign=top;spacingLeft=4;spacingRight=4;overflow=hidden;rotatable=0;points=[[0,0.5],[1,0.5]];portConstraint=eastwest;whiteSpace=wrap;html=1;" parent="bju6o1A8lPEfDlK_xBNU-23" vertex="1">
          <mxGeometry y="208" width="400" height="26" as="geometry" />
        </mxCell>
        <mxCell id="xm2dH1QjAM5IwSRC4I6v-27" value="farmingLv: &lt;b&gt;int&lt;/b&gt;" style="text;strokeColor=none;fillColor=none;align=left;verticalAlign=top;spacingLeft=4;spacingRight=4;overflow=hidden;rotatable=0;points=[[0,0.5],[1,0.5]];portConstraint=eastwest;whiteSpace=wrap;html=1;" parent="bju6o1A8lPEfDlK_xBNU-23" vertex="1">
          <mxGeometry y="234" width="400" height="26" as="geometry" />
        </mxCell>
        <mxCell id="xm2dH1QjAM5IwSRC4I6v-26" value="livestockLv: &lt;b&gt;int&lt;/b&gt;" style="text;strokeColor=none;fillColor=none;align=left;verticalAlign=top;spacingLeft=4;spacingRight=4;overflow=hidden;rotatable=0;points=[[0,0.5],[1,0.5]];portConstraint=eastwest;whiteSpace=wrap;html=1;" parent="bju6o1A8lPEfDlK_xBNU-23" vertex="1">
          <mxGeometry y="260" width="400" height="26" as="geometry" />
        </mxCell>
        <mxCell id="xm2dH1QjAM5IwSRC4I6v-20" value="fishingLV: &lt;b&gt;int&lt;/b&gt;" style="text;strokeColor=none;fillColor=none;align=left;verticalAlign=top;spacingLeft=4;spacingRight=4;overflow=hidden;rotatable=0;points=[[0,0.5],[1,0.5]];portConstraint=eastwest;whiteSpace=wrap;html=1;" parent="bju6o1A8lPEfDlK_xBNU-23" vertex="1">
          <mxGeometry y="286" width="400" height="26" as="geometry" />
        </mxCell>
        <mxCell id="xm2dH1QjAM5IwSRC4I6v-24" value="manufatureLv: &lt;b&gt;int&lt;/b&gt;" style="text;strokeColor=none;fillColor=none;align=left;verticalAlign=top;spacingLeft=4;spacingRight=4;overflow=hidden;rotatable=0;points=[[0,0.5],[1,0.5]];portConstraint=eastwest;whiteSpace=wrap;html=1;" parent="bju6o1A8lPEfDlK_xBNU-23" vertex="1">
          <mxGeometry y="312" width="400" height="26" as="geometry" />
        </mxCell>
        <mxCell id="xm2dH1QjAM5IwSRC4I6v-23" value="farmingExp: &lt;b&gt;float&lt;/b&gt;" style="text;strokeColor=none;fillColor=none;align=left;verticalAlign=top;spacingLeft=4;spacingRight=4;overflow=hidden;rotatable=0;points=[[0,0.5],[1,0.5]];portConstraint=eastwest;whiteSpace=wrap;html=1;" parent="bju6o1A8lPEfDlK_xBNU-23" vertex="1">
          <mxGeometry y="338" width="400" height="26" as="geometry" />
        </mxCell>
        <mxCell id="xm2dH1QjAM5IwSRC4I6v-22" value="livestockExp: &lt;b&gt;float&lt;/b&gt;" style="text;strokeColor=none;fillColor=none;align=left;verticalAlign=top;spacingLeft=4;spacingRight=4;overflow=hidden;rotatable=0;points=[[0,0.5],[1,0.5]];portConstraint=eastwest;whiteSpace=wrap;html=1;" parent="bju6o1A8lPEfDlK_xBNU-23" vertex="1">
          <mxGeometry y="364" width="400" height="26" as="geometry" />
        </mxCell>
        <mxCell id="xm2dH1QjAM5IwSRC4I6v-21" value="fishingExp: &lt;b&gt;float&lt;/b&gt;" style="text;strokeColor=none;fillColor=none;align=left;verticalAlign=top;spacingLeft=4;spacingRight=4;overflow=hidden;rotatable=0;points=[[0,0.5],[1,0.5]];portConstraint=eastwest;whiteSpace=wrap;html=1;" parent="bju6o1A8lPEfDlK_xBNU-23" vertex="1">
          <mxGeometry y="390" width="400" height="26" as="geometry" />
        </mxCell>
        <mxCell id="xm2dH1QjAM5IwSRC4I6v-19" value="manufactureExp: &lt;b&gt;float&lt;/b&gt;" style="text;strokeColor=none;fillColor=none;align=left;verticalAlign=top;spacingLeft=4;spacingRight=4;overflow=hidden;rotatable=0;points=[[0,0.5],[1,0.5]];portConstraint=eastwest;whiteSpace=wrap;html=1;" parent="bju6o1A8lPEfDlK_xBNU-23" vertex="1">
          <mxGeometry y="416" width="400" height="26" as="geometry" />
        </mxCell>
        <mxCell id="xm2dH1QjAM5IwSRC4I6v-18" value="job: &lt;b&gt;Job&lt;/b&gt;" style="text;strokeColor=none;fillColor=none;align=left;verticalAlign=top;spacingLeft=4;spacingRight=4;overflow=hidden;rotatable=0;points=[[0,0.5],[1,0.5]];portConstraint=eastwest;whiteSpace=wrap;html=1;" parent="bju6o1A8lPEfDlK_xBNU-23" vertex="1">
          <mxGeometry y="442" width="400" height="26" as="geometry" />
        </mxCell>
        <mxCell id="xm2dH1QjAM5IwSRC4I6v-17" value="animController: &lt;b&gt;PlayerAnimController&lt;/b&gt;" style="text;strokeColor=none;fillColor=none;align=left;verticalAlign=top;spacingLeft=4;spacingRight=4;overflow=hidden;rotatable=0;points=[[0,0.5],[1,0.5]];portConstraint=eastwest;whiteSpace=wrap;html=1;" parent="bju6o1A8lPEfDlK_xBNU-23" vertex="1">
          <mxGeometry y="468" width="400" height="26" as="geometry" />
        </mxCell>
        <mxCell id="xm2dH1QjAM5IwSRC4I6v-16" value="audioController: &lt;b&gt;PlayerAudioController&lt;/b&gt;" style="text;strokeColor=none;fillColor=none;align=left;verticalAlign=top;spacingLeft=4;spacingRight=4;overflow=hidden;rotatable=0;points=[[0,0.5],[1,0.5]];portConstraint=eastwest;whiteSpace=wrap;html=1;" parent="bju6o1A8lPEfDlK_xBNU-23" vertex="1">
          <mxGeometry y="494" width="400" height="26" as="geometry" />
        </mxCell>
        <mxCell id="DAK-FWUQh9UaPPSFwCzS-6" value="stateManager: &lt;b&gt;StateManager&lt;/b&gt;" style="text;strokeColor=none;fillColor=none;align=left;verticalAlign=top;spacingLeft=4;spacingRight=4;overflow=hidden;rotatable=0;points=[[0,0.5],[1,0.5]];portConstraint=eastwest;whiteSpace=wrap;html=1;" parent="bju6o1A8lPEfDlK_xBNU-23" vertex="1">
          <mxGeometry y="520" width="400" height="26" as="geometry" />
        </mxCell>
        <mxCell id="eKUzeH0nI4rjdPL3w0SY-19" value="&amp;lt; private set &amp;gt; + movementController: &lt;b&gt;CharacterMovement&lt;/b&gt;" style="text;strokeColor=none;fillColor=none;align=left;verticalAlign=top;spacingLeft=4;spacingRight=4;overflow=hidden;rotatable=0;points=[[0,0.5],[1,0.5]];portConstraint=eastwest;whiteSpace=wrap;html=1;" vertex="1" parent="bju6o1A8lPEfDlK_xBNU-23">
          <mxGeometry y="546" width="400" height="26" as="geometry" />
        </mxCell>
        <mxCell id="eKUzeH0nI4rjdPL3w0SY-29" value="&amp;lt; static &amp;gt; + direction: &lt;b&gt;CharacterDirection&lt;/b&gt;" style="text;strokeColor=none;fillColor=none;align=left;verticalAlign=top;spacingLeft=4;spacingRight=4;overflow=hidden;rotatable=0;points=[[0,0.5],[1,0.5]];portConstraint=eastwest;whiteSpace=wrap;html=1;" vertex="1" parent="bju6o1A8lPEfDlK_xBNU-23">
          <mxGeometry y="572" width="400" height="26" as="geometry" />
        </mxCell>
        <mxCell id="bju6o1A8lPEfDlK_xBNU-25" value="" style="line;strokeWidth=1;fillColor=none;align=left;verticalAlign=middle;spacingTop=-1;spacingLeft=3;spacingRight=3;rotatable=0;labelPosition=right;points=[];portConstraint=eastwest;strokeColor=inherit;" parent="bju6o1A8lPEfDlK_xBNU-23" vertex="1">
          <mxGeometry y="598" width="400" height="8" as="geometry" />
        </mxCell>
        <mxCell id="bju6o1A8lPEfDlK_xBNU-26" value="- UpdateDirection(): &lt;b&gt;void&lt;/b&gt;" style="text;strokeColor=none;fillColor=none;align=left;verticalAlign=top;spacingLeft=4;spacingRight=4;overflow=hidden;rotatable=0;points=[[0,0.5],[1,0.5]];portConstraint=eastwest;whiteSpace=wrap;html=1;" parent="bju6o1A8lPEfDlK_xBNU-23" vertex="1">
          <mxGeometry y="606" width="400" height="26" as="geometry" />
        </mxCell>
        <mxCell id="eKUzeH0nI4rjdPL3w0SY-37" value="- MovingHandle(): &lt;b&gt;void&lt;/b&gt;" style="text;strokeColor=none;fillColor=none;align=left;verticalAlign=top;spacingLeft=4;spacingRight=4;overflow=hidden;rotatable=0;points=[[0,0.5],[1,0.5]];portConstraint=eastwest;whiteSpace=wrap;html=1;" vertex="1" parent="bju6o1A8lPEfDlK_xBNU-23">
          <mxGeometry y="632" width="400" height="26" as="geometry" />
        </mxCell>
        <mxCell id="bju6o1A8lPEfDlK_xBNU-27" value="NPCController" style="swimlane;fontStyle=1;align=center;verticalAlign=top;childLayout=stackLayout;horizontal=1;startSize=26;horizontalStack=0;resizeParent=1;resizeParentMax=0;resizeLast=0;collapsible=1;marginBottom=0;whiteSpace=wrap;html=1;" parent="zOyCUMjI-DACBVfXXY2o-1" vertex="1">
          <mxGeometry x="600" y="70" width="160" height="86" as="geometry" />
        </mxCell>
        <mxCell id="bju6o1A8lPEfDlK_xBNU-28" value="+ field: type" style="text;strokeColor=none;fillColor=none;align=left;verticalAlign=top;spacingLeft=4;spacingRight=4;overflow=hidden;rotatable=0;points=[[0,0.5],[1,0.5]];portConstraint=eastwest;whiteSpace=wrap;html=1;" parent="bju6o1A8lPEfDlK_xBNU-27" vertex="1">
          <mxGeometry y="26" width="160" height="26" as="geometry" />
        </mxCell>
        <mxCell id="bju6o1A8lPEfDlK_xBNU-29" value="" style="line;strokeWidth=1;fillColor=none;align=left;verticalAlign=middle;spacingTop=-1;spacingLeft=3;spacingRight=3;rotatable=0;labelPosition=right;points=[];portConstraint=eastwest;strokeColor=inherit;" parent="bju6o1A8lPEfDlK_xBNU-27" vertex="1">
          <mxGeometry y="52" width="160" height="8" as="geometry" />
        </mxCell>
        <mxCell id="bju6o1A8lPEfDlK_xBNU-30" value="+ method(type): type" style="text;strokeColor=none;fillColor=none;align=left;verticalAlign=top;spacingLeft=4;spacingRight=4;overflow=hidden;rotatable=0;points=[[0,0.5],[1,0.5]];portConstraint=eastwest;whiteSpace=wrap;html=1;" parent="bju6o1A8lPEfDlK_xBNU-27" vertex="1">
          <mxGeometry y="60" width="160" height="26" as="geometry" />
        </mxCell>
        <mxCell id="bju6o1A8lPEfDlK_xBNU-41" value="PlayerAnimationController" style="swimlane;fontStyle=1;align=center;verticalAlign=top;childLayout=stackLayout;horizontal=1;startSize=26;horizontalStack=0;resizeParent=1;resizeParentMax=0;resizeLast=0;collapsible=1;marginBottom=0;whiteSpace=wrap;html=1;" parent="zOyCUMjI-DACBVfXXY2o-1" vertex="1">
          <mxGeometry x="460" y="590" width="215" height="86" as="geometry" />
        </mxCell>
        <mxCell id="eKUzeH0nI4rjdPL3w0SY-38" value="- _animator: &lt;b&gt;Animator&lt;/b&gt;" style="text;strokeColor=none;fillColor=none;align=left;verticalAlign=top;spacingLeft=4;spacingRight=4;overflow=hidden;rotatable=0;points=[[0,0.5],[1,0.5]];portConstraint=eastwest;whiteSpace=wrap;html=1;" vertex="1" parent="bju6o1A8lPEfDlK_xBNU-41">
          <mxGeometry y="26" width="215" height="26" as="geometry" />
        </mxCell>
        <mxCell id="bju6o1A8lPEfDlK_xBNU-43" value="" style="line;strokeWidth=1;fillColor=none;align=left;verticalAlign=middle;spacingTop=-1;spacingLeft=3;spacingRight=3;rotatable=0;labelPosition=right;points=[];portConstraint=eastwest;strokeColor=inherit;" parent="bju6o1A8lPEfDlK_xBNU-41" vertex="1">
          <mxGeometry y="52" width="215" height="8" as="geometry" />
        </mxCell>
        <mxCell id="bju6o1A8lPEfDlK_xBNU-44" value="+ PlayAnimation(&lt;b&gt;string &lt;/b&gt;name): &lt;b&gt;void&lt;/b&gt;" style="text;strokeColor=none;fillColor=none;align=left;verticalAlign=top;spacingLeft=4;spacingRight=4;overflow=hidden;rotatable=0;points=[[0,0.5],[1,0.5]];portConstraint=eastwest;whiteSpace=wrap;html=1;" parent="bju6o1A8lPEfDlK_xBNU-41" vertex="1">
          <mxGeometry y="60" width="215" height="26" as="geometry" />
        </mxCell>
        <mxCell id="bju6o1A8lPEfDlK_xBNU-45" value="PlayerAudioController" style="swimlane;fontStyle=1;align=center;verticalAlign=top;childLayout=stackLayout;horizontal=1;startSize=26;horizontalStack=0;resizeParent=1;resizeParentMax=0;resizeLast=0;collapsible=1;marginBottom=0;whiteSpace=wrap;html=1;" parent="zOyCUMjI-DACBVfXXY2o-1" vertex="1">
          <mxGeometry x="810" y="70" width="185" height="86" as="geometry" />
        </mxCell>
        <mxCell id="bju6o1A8lPEfDlK_xBNU-46" value="+ field: type" style="text;strokeColor=none;fillColor=none;align=left;verticalAlign=top;spacingLeft=4;spacingRight=4;overflow=hidden;rotatable=0;points=[[0,0.5],[1,0.5]];portConstraint=eastwest;whiteSpace=wrap;html=1;" parent="bju6o1A8lPEfDlK_xBNU-45" vertex="1">
          <mxGeometry y="26" width="185" height="26" as="geometry" />
        </mxCell>
        <mxCell id="bju6o1A8lPEfDlK_xBNU-47" value="" style="line;strokeWidth=1;fillColor=none;align=left;verticalAlign=middle;spacingTop=-1;spacingLeft=3;spacingRight=3;rotatable=0;labelPosition=right;points=[];portConstraint=eastwest;strokeColor=inherit;" parent="bju6o1A8lPEfDlK_xBNU-45" vertex="1">
          <mxGeometry y="52" width="185" height="8" as="geometry" />
        </mxCell>
        <mxCell id="bju6o1A8lPEfDlK_xBNU-48" value="+ method(type): type" style="text;strokeColor=none;fillColor=none;align=left;verticalAlign=top;spacingLeft=4;spacingRight=4;overflow=hidden;rotatable=0;points=[[0,0.5],[1,0.5]];portConstraint=eastwest;whiteSpace=wrap;html=1;" parent="bju6o1A8lPEfDlK_xBNU-45" vertex="1">
          <mxGeometry y="60" width="185" height="26" as="geometry" />
        </mxCell>
        <mxCell id="bju6o1A8lPEfDlK_xBNU-49" value="PlayerController" style="swimlane;fontStyle=1;align=center;verticalAlign=top;childLayout=stackLayout;horizontal=1;startSize=26;horizontalStack=0;resizeParent=1;resizeParentMax=0;resizeLast=0;collapsible=1;marginBottom=0;whiteSpace=wrap;html=1;" parent="zOyCUMjI-DACBVfXXY2o-1" vertex="1">
          <mxGeometry x="510" y="256" width="180" height="86" as="geometry" />
        </mxCell>
        <mxCell id="bju6o1A8lPEfDlK_xBNU-50" value="+ field: type" style="text;strokeColor=none;fillColor=none;align=left;verticalAlign=top;spacingLeft=4;spacingRight=4;overflow=hidden;rotatable=0;points=[[0,0.5],[1,0.5]];portConstraint=eastwest;whiteSpace=wrap;html=1;" parent="bju6o1A8lPEfDlK_xBNU-49" vertex="1">
          <mxGeometry y="26" width="180" height="26" as="geometry" />
        </mxCell>
        <mxCell id="bju6o1A8lPEfDlK_xBNU-51" value="" style="line;strokeWidth=1;fillColor=none;align=left;verticalAlign=middle;spacingTop=-1;spacingLeft=3;spacingRight=3;rotatable=0;labelPosition=right;points=[];portConstraint=eastwest;strokeColor=inherit;" parent="bju6o1A8lPEfDlK_xBNU-49" vertex="1">
          <mxGeometry y="52" width="180" height="8" as="geometry" />
        </mxCell>
        <mxCell id="bju6o1A8lPEfDlK_xBNU-52" value="+ method(type): type" style="text;strokeColor=none;fillColor=none;align=left;verticalAlign=top;spacingLeft=4;spacingRight=4;overflow=hidden;rotatable=0;points=[[0,0.5],[1,0.5]];portConstraint=eastwest;whiteSpace=wrap;html=1;" parent="bju6o1A8lPEfDlK_xBNU-49" vertex="1">
          <mxGeometry y="60" width="180" height="26" as="geometry" />
        </mxCell>
        <mxCell id="1-FDPUNn8A2mafEI9I_r-19" value="PlayerScriptableObject" style="swimlane;fontStyle=1;align=center;verticalAlign=top;childLayout=stackLayout;horizontal=1;startSize=26;horizontalStack=0;resizeParent=1;resizeParentMax=0;resizeLast=0;collapsible=1;marginBottom=0;whiteSpace=wrap;html=1;" parent="zOyCUMjI-DACBVfXXY2o-1" vertex="1">
          <mxGeometry x="790" y="230" width="200" height="112" as="geometry" />
        </mxCell>
        <mxCell id="xm2dH1QjAM5IwSRC4I6v-2" value="+ baseSpeed: float" style="text;strokeColor=none;fillColor=none;align=left;verticalAlign=top;spacingLeft=4;spacingRight=4;overflow=hidden;rotatable=0;points=[[0,0.5],[1,0.5]];portConstraint=eastwest;whiteSpace=wrap;html=1;" parent="1-FDPUNn8A2mafEI9I_r-19" vertex="1">
          <mxGeometry y="26" width="200" height="26" as="geometry" />
        </mxCell>
        <mxCell id="xm2dH1QjAM5IwSRC4I6v-3" value="+ baseStamina: float" style="text;strokeColor=none;fillColor=none;align=left;verticalAlign=top;spacingLeft=4;spacingRight=4;overflow=hidden;rotatable=0;points=[[0,0.5],[1,0.5]];portConstraint=eastwest;whiteSpace=wrap;html=1;" parent="1-FDPUNn8A2mafEI9I_r-19" vertex="1">
          <mxGeometry y="52" width="200" height="26" as="geometry" />
        </mxCell>
        <mxCell id="1-FDPUNn8A2mafEI9I_r-20" value="+ gender: bool" style="text;strokeColor=none;fillColor=none;align=left;verticalAlign=top;spacingLeft=4;spacingRight=4;overflow=hidden;rotatable=0;points=[[0,0.5],[1,0.5]];portConstraint=eastwest;whiteSpace=wrap;html=1;" parent="1-FDPUNn8A2mafEI9I_r-19" vertex="1">
          <mxGeometry y="78" width="200" height="26" as="geometry" />
        </mxCell>
        <mxCell id="1-FDPUNn8A2mafEI9I_r-21" value="" style="line;strokeWidth=1;fillColor=none;align=left;verticalAlign=middle;spacingTop=-1;spacingLeft=3;spacingRight=3;rotatable=0;labelPosition=right;points=[];portConstraint=eastwest;strokeColor=inherit;" parent="1-FDPUNn8A2mafEI9I_r-19" vertex="1">
          <mxGeometry y="104" width="200" height="8" as="geometry" />
        </mxCell>
        <mxCell id="1-FDPUNn8A2mafEI9I_r-23" value="NPCScriptableObject" style="swimlane;fontStyle=1;align=center;verticalAlign=top;childLayout=stackLayout;horizontal=1;startSize=26;horizontalStack=0;resizeParent=1;resizeParentMax=0;resizeLast=0;collapsible=1;marginBottom=0;whiteSpace=wrap;html=1;" parent="zOyCUMjI-DACBVfXXY2o-1" vertex="1">
          <mxGeometry x="350" y="390" width="170" height="86" as="geometry" />
        </mxCell>
        <mxCell id="1-FDPUNn8A2mafEI9I_r-24" value="+ field: type" style="text;strokeColor=none;fillColor=none;align=left;verticalAlign=top;spacingLeft=4;spacingRight=4;overflow=hidden;rotatable=0;points=[[0,0.5],[1,0.5]];portConstraint=eastwest;whiteSpace=wrap;html=1;" parent="1-FDPUNn8A2mafEI9I_r-23" vertex="1">
          <mxGeometry y="26" width="170" height="26" as="geometry" />
        </mxCell>
        <mxCell id="1-FDPUNn8A2mafEI9I_r-25" value="" style="line;strokeWidth=1;fillColor=none;align=left;verticalAlign=middle;spacingTop=-1;spacingLeft=3;spacingRight=3;rotatable=0;labelPosition=right;points=[];portConstraint=eastwest;strokeColor=inherit;" parent="1-FDPUNn8A2mafEI9I_r-23" vertex="1">
          <mxGeometry y="52" width="170" height="8" as="geometry" />
        </mxCell>
        <mxCell id="1-FDPUNn8A2mafEI9I_r-26" value="+ method(type): type" style="text;strokeColor=none;fillColor=none;align=left;verticalAlign=top;spacingLeft=4;spacingRight=4;overflow=hidden;rotatable=0;points=[[0,0.5],[1,0.5]];portConstraint=eastwest;whiteSpace=wrap;html=1;" parent="1-FDPUNn8A2mafEI9I_r-23" vertex="1">
          <mxGeometry y="60" width="170" height="26" as="geometry" />
        </mxCell>
        <mxCell id="xm2dH1QjAM5IwSRC4I6v-40" value="&lt;b&gt;Job&lt;/b&gt;&lt;div&gt;&lt;font style=&quot;font-size: 10px;&quot;&gt;&amp;lt;&amp;lt; enum &amp;gt;&amp;gt;&lt;/font&gt;&lt;/div&gt;" style="swimlane;fontStyle=0;childLayout=stackLayout;horizontal=1;startSize=40;fillColor=none;horizontalStack=0;resizeParent=1;resizeParentMax=0;resizeLast=0;collapsible=1;marginBottom=0;whiteSpace=wrap;html=1;" parent="zOyCUMjI-DACBVfXXY2o-1" vertex="1">
          <mxGeometry x="415" y="70" width="140" height="144" as="geometry" />
        </mxCell>
        <mxCell id="xm2dH1QjAM5IwSRC4I6v-41" value="Farmer" style="text;strokeColor=none;fillColor=none;align=left;verticalAlign=top;spacingLeft=4;spacingRight=4;overflow=hidden;rotatable=0;points=[[0,0.5],[1,0.5]];portConstraint=eastwest;whiteSpace=wrap;html=1;" parent="xm2dH1QjAM5IwSRC4I6v-40" vertex="1">
          <mxGeometry y="40" width="140" height="26" as="geometry" />
        </mxCell>
        <mxCell id="xm2dH1QjAM5IwSRC4I6v-42" value="LivestockFarmer" style="text;strokeColor=none;fillColor=none;align=left;verticalAlign=top;spacingLeft=4;spacingRight=4;overflow=hidden;rotatable=0;points=[[0,0.5],[1,0.5]];portConstraint=eastwest;whiteSpace=wrap;html=1;" parent="xm2dH1QjAM5IwSRC4I6v-40" vertex="1">
          <mxGeometry y="66" width="140" height="26" as="geometry" />
        </mxCell>
        <mxCell id="xm2dH1QjAM5IwSRC4I6v-43" value="Fisherman" style="text;strokeColor=none;fillColor=none;align=left;verticalAlign=top;spacingLeft=4;spacingRight=4;overflow=hidden;rotatable=0;points=[[0,0.5],[1,0.5]];portConstraint=eastwest;whiteSpace=wrap;html=1;" parent="xm2dH1QjAM5IwSRC4I6v-40" vertex="1">
          <mxGeometry y="92" width="140" height="26" as="geometry" />
        </mxCell>
        <mxCell id="xm2dH1QjAM5IwSRC4I6v-44" value="Craftsperson" style="text;strokeColor=none;fillColor=none;align=left;verticalAlign=top;spacingLeft=4;spacingRight=4;overflow=hidden;rotatable=0;points=[[0,0.5],[1,0.5]];portConstraint=eastwest;whiteSpace=wrap;html=1;" parent="xm2dH1QjAM5IwSRC4I6v-40" vertex="1">
          <mxGeometry y="118" width="140" height="26" as="geometry" />
        </mxCell>
        <mxCell id="eKUzeH0nI4rjdPL3w0SY-1" value="CharacterMovement" style="swimlane;fontStyle=1;align=center;verticalAlign=top;childLayout=stackLayout;horizontal=1;startSize=26;horizontalStack=0;resizeParent=1;resizeParentMax=0;resizeLast=0;collapsible=1;marginBottom=0;whiteSpace=wrap;html=1;" vertex="1" parent="zOyCUMjI-DACBVfXXY2o-1">
          <mxGeometry x="630" y="800" width="230" height="268" as="geometry" />
        </mxCell>
        <mxCell id="eKUzeH0nI4rjdPL3w0SY-14" value="&amp;lt;&amp;lt; static &amp;gt;&amp;gt; + defaultSpeed: float" style="text;strokeColor=none;fillColor=none;align=left;verticalAlign=top;spacingLeft=4;spacingRight=4;overflow=hidden;rotatable=0;points=[[0,0.5],[1,0.5]];portConstraint=eastwest;whiteSpace=wrap;html=1;" vertex="1" parent="eKUzeH0nI4rjdPL3w0SY-1">
          <mxGeometry y="26" width="230" height="26" as="geometry" />
        </mxCell>
        <mxCell id="eKUzeH0nI4rjdPL3w0SY-2" value="- isMoving: bool" style="text;strokeColor=none;fillColor=none;align=left;verticalAlign=top;spacingLeft=4;spacingRight=4;overflow=hidden;rotatable=0;points=[[0,0.5],[1,0.5]];portConstraint=eastwest;whiteSpace=wrap;html=1;" vertex="1" parent="eKUzeH0nI4rjdPL3w0SY-1">
          <mxGeometry y="52" width="230" height="26" as="geometry" />
        </mxCell>
        <mxCell id="eKUzeH0nI4rjdPL3w0SY-5" value="- isRunning: bool" style="text;strokeColor=none;fillColor=none;align=left;verticalAlign=top;spacingLeft=4;spacingRight=4;overflow=hidden;rotatable=0;points=[[0,0.5],[1,0.5]];portConstraint=eastwest;whiteSpace=wrap;html=1;" vertex="1" parent="eKUzeH0nI4rjdPL3w0SY-1">
          <mxGeometry y="78" width="230" height="26" as="geometry" />
        </mxCell>
        <mxCell id="eKUzeH0nI4rjdPL3w0SY-8" value="- isStrolling: bool" style="text;strokeColor=none;fillColor=none;align=left;verticalAlign=top;spacingLeft=4;spacingRight=4;overflow=hidden;rotatable=0;points=[[0,0.5],[1,0.5]];portConstraint=eastwest;whiteSpace=wrap;html=1;" vertex="1" parent="eKUzeH0nI4rjdPL3w0SY-1">
          <mxGeometry y="104" width="230" height="26" as="geometry" />
        </mxCell>
        <mxCell id="eKUzeH0nI4rjdPL3w0SY-7" value="- _movementState: MovementState" style="text;strokeColor=none;fillColor=none;align=left;verticalAlign=top;spacingLeft=4;spacingRight=4;overflow=hidden;rotatable=0;points=[[0,0.5],[1,0.5]];portConstraint=eastwest;whiteSpace=wrap;html=1;" vertex="1" parent="eKUzeH0nI4rjdPL3w0SY-1">
          <mxGeometry y="130" width="230" height="26" as="geometry" />
        </mxCell>
        <mxCell id="eKUzeH0nI4rjdPL3w0SY-15" value="- _speed: float" style="text;strokeColor=none;fillColor=none;align=left;verticalAlign=top;spacingLeft=4;spacingRight=4;overflow=hidden;rotatable=0;points=[[0,0.5],[1,0.5]];portConstraint=eastwest;whiteSpace=wrap;html=1;" vertex="1" parent="eKUzeH0nI4rjdPL3w0SY-1">
          <mxGeometry y="156" width="230" height="26" as="geometry" />
        </mxCell>
        <mxCell id="eKUzeH0nI4rjdPL3w0SY-3" value="" style="line;strokeWidth=1;fillColor=none;align=left;verticalAlign=middle;spacingTop=-1;spacingLeft=3;spacingRight=3;rotatable=0;labelPosition=right;points=[];portConstraint=eastwest;strokeColor=inherit;" vertex="1" parent="eKUzeH0nI4rjdPL3w0SY-1">
          <mxGeometry y="182" width="230" height="8" as="geometry" />
        </mxCell>
        <mxCell id="eKUzeH0nI4rjdPL3w0SY-4" value="- ChangeSpeed(&lt;b&gt;float &lt;/b&gt;newSpeed): &lt;b&gt;void&lt;/b&gt;" style="text;strokeColor=none;fillColor=none;align=left;verticalAlign=top;spacingLeft=4;spacingRight=4;overflow=hidden;rotatable=0;points=[[0,0.5],[1,0.5]];portConstraint=eastwest;whiteSpace=wrap;html=1;" vertex="1" parent="eKUzeH0nI4rjdPL3w0SY-1">
          <mxGeometry y="190" width="230" height="26" as="geometry" />
        </mxCell>
        <mxCell id="eKUzeH0nI4rjdPL3w0SY-16" value="- UpdateMovementState(): &lt;b&gt;void&lt;/b&gt;" style="text;strokeColor=none;fillColor=none;align=left;verticalAlign=top;spacingLeft=4;spacingRight=4;overflow=hidden;rotatable=0;points=[[0,0.5],[1,0.5]];portConstraint=eastwest;whiteSpace=wrap;html=1;" vertex="1" parent="eKUzeH0nI4rjdPL3w0SY-1">
          <mxGeometry y="216" width="230" height="26" as="geometry" />
        </mxCell>
        <mxCell id="eKUzeH0nI4rjdPL3w0SY-17" value="+ Moving(): &lt;b&gt;void&lt;/b&gt;" style="text;strokeColor=none;fillColor=none;align=left;verticalAlign=top;spacingLeft=4;spacingRight=4;overflow=hidden;rotatable=0;points=[[0,0.5],[1,0.5]];portConstraint=eastwest;whiteSpace=wrap;html=1;" vertex="1" parent="eKUzeH0nI4rjdPL3w0SY-1">
          <mxGeometry y="242" width="230" height="26" as="geometry" />
        </mxCell>
        <mxCell id="eKUzeH0nI4rjdPL3w0SY-9" value="MovermentState&lt;div&gt;&lt;font style=&quot;font-size: 10px;&quot;&gt;&amp;lt;&amp;lt; enum &amp;gt;&amp;gt;&lt;/font&gt;&lt;/div&gt;" style="swimlane;fontStyle=0;childLayout=stackLayout;horizontal=1;startSize=34;fillColor=none;horizontalStack=0;resizeParent=1;resizeParentMax=0;resizeLast=0;collapsible=1;marginBottom=0;whiteSpace=wrap;html=1;" vertex="1" parent="zOyCUMjI-DACBVfXXY2o-1">
          <mxGeometry x="860" y="390" width="140" height="138" as="geometry" />
        </mxCell>
        <mxCell id="eKUzeH0nI4rjdPL3w0SY-10" value="Idle" style="text;strokeColor=none;fillColor=none;align=left;verticalAlign=top;spacingLeft=4;spacingRight=4;overflow=hidden;rotatable=0;points=[[0,0.5],[1,0.5]];portConstraint=eastwest;whiteSpace=wrap;html=1;" vertex="1" parent="eKUzeH0nI4rjdPL3w0SY-9">
          <mxGeometry y="34" width="140" height="26" as="geometry" />
        </mxCell>
        <mxCell id="eKUzeH0nI4rjdPL3w0SY-11" value="Moving" style="text;strokeColor=none;fillColor=none;align=left;verticalAlign=top;spacingLeft=4;spacingRight=4;overflow=hidden;rotatable=0;points=[[0,0.5],[1,0.5]];portConstraint=eastwest;whiteSpace=wrap;html=1;" vertex="1" parent="eKUzeH0nI4rjdPL3w0SY-9">
          <mxGeometry y="60" width="140" height="26" as="geometry" />
        </mxCell>
        <mxCell id="eKUzeH0nI4rjdPL3w0SY-12" value="Strolling" style="text;strokeColor=none;fillColor=none;align=left;verticalAlign=top;spacingLeft=4;spacingRight=4;overflow=hidden;rotatable=0;points=[[0,0.5],[1,0.5]];portConstraint=eastwest;whiteSpace=wrap;html=1;" vertex="1" parent="eKUzeH0nI4rjdPL3w0SY-9">
          <mxGeometry y="86" width="140" height="26" as="geometry" />
        </mxCell>
        <mxCell id="eKUzeH0nI4rjdPL3w0SY-13" value="Running" style="text;strokeColor=none;fillColor=none;align=left;verticalAlign=top;spacingLeft=4;spacingRight=4;overflow=hidden;rotatable=0;points=[[0,0.5],[1,0.5]];portConstraint=eastwest;whiteSpace=wrap;html=1;" vertex="1" parent="eKUzeH0nI4rjdPL3w0SY-9">
          <mxGeometry y="112" width="140" height="26" as="geometry" />
        </mxCell>
        <mxCell id="eKUzeH0nI4rjdPL3w0SY-18" style="edgeStyle=orthogonalEdgeStyle;rounded=0;orthogonalLoop=1;jettySize=auto;html=1;dashed=1;endArrow=none;startFill=0;" edge="1" parent="zOyCUMjI-DACBVfXXY2o-1" source="eKUzeH0nI4rjdPL3w0SY-7" target="eKUzeH0nI4rjdPL3w0SY-9">
          <mxGeometry relative="1" as="geometry" />
        </mxCell>
        <mxCell id="eKUzeH0nI4rjdPL3w0SY-24" value="&lt;b&gt;CharacterDirection&lt;/b&gt;&lt;div&gt;&lt;b&gt;&lt;font style=&quot;font-size: 10px;&quot;&gt;&amp;lt;&amp;lt; enum &amp;gt;&amp;gt;&lt;/font&gt;&lt;/b&gt;&lt;/div&gt;" style="swimlane;fontStyle=0;childLayout=stackLayout;horizontal=1;startSize=36;fillColor=none;horizontalStack=0;resizeParent=1;resizeParentMax=0;resizeLast=0;collapsible=1;marginBottom=0;whiteSpace=wrap;html=1;" vertex="1" parent="zOyCUMjI-DACBVfXXY2o-1">
          <mxGeometry x="900" y="960" width="140" height="140" as="geometry" />
        </mxCell>
        <mxCell id="eKUzeH0nI4rjdPL3w0SY-25" value="Up" style="text;strokeColor=none;fillColor=none;align=left;verticalAlign=top;spacingLeft=4;spacingRight=4;overflow=hidden;rotatable=0;points=[[0,0.5],[1,0.5]];portConstraint=eastwest;whiteSpace=wrap;html=1;" vertex="1" parent="eKUzeH0nI4rjdPL3w0SY-24">
          <mxGeometry y="36" width="140" height="26" as="geometry" />
        </mxCell>
        <mxCell id="eKUzeH0nI4rjdPL3w0SY-26" value="Down" style="text;strokeColor=none;fillColor=none;align=left;verticalAlign=top;spacingLeft=4;spacingRight=4;overflow=hidden;rotatable=0;points=[[0,0.5],[1,0.5]];portConstraint=eastwest;whiteSpace=wrap;html=1;" vertex="1" parent="eKUzeH0nI4rjdPL3w0SY-24">
          <mxGeometry y="62" width="140" height="26" as="geometry" />
        </mxCell>
        <mxCell id="eKUzeH0nI4rjdPL3w0SY-27" value="Right" style="text;strokeColor=none;fillColor=none;align=left;verticalAlign=top;spacingLeft=4;spacingRight=4;overflow=hidden;rotatable=0;points=[[0,0.5],[1,0.5]];portConstraint=eastwest;whiteSpace=wrap;html=1;" vertex="1" parent="eKUzeH0nI4rjdPL3w0SY-24">
          <mxGeometry y="88" width="140" height="26" as="geometry" />
        </mxCell>
        <mxCell id="eKUzeH0nI4rjdPL3w0SY-28" value="Left" style="text;strokeColor=none;fillColor=none;align=left;verticalAlign=top;spacingLeft=4;spacingRight=4;overflow=hidden;rotatable=0;points=[[0,0.5],[1,0.5]];portConstraint=eastwest;whiteSpace=wrap;html=1;" vertex="1" parent="eKUzeH0nI4rjdPL3w0SY-24">
          <mxGeometry y="114" width="140" height="26" as="geometry" />
        </mxCell>
        <mxCell id="eKUzeH0nI4rjdPL3w0SY-30" style="edgeStyle=orthogonalEdgeStyle;rounded=0;orthogonalLoop=1;jettySize=auto;html=1;dashed=1;endArrow=none;startFill=0;" edge="1" parent="zOyCUMjI-DACBVfXXY2o-1" source="eKUzeH0nI4rjdPL3w0SY-29" target="eKUzeH0nI4rjdPL3w0SY-24">
          <mxGeometry relative="1" as="geometry" />
        </mxCell>
        <mxCell id="eKUzeH0nI4rjdPL3w0SY-31" style="edgeStyle=orthogonalEdgeStyle;rounded=0;orthogonalLoop=1;jettySize=auto;html=1;dashed=1;endArrow=none;startFill=0;" edge="1" parent="zOyCUMjI-DACBVfXXY2o-1" source="eKUzeH0nI4rjdPL3w0SY-19" target="eKUzeH0nI4rjdPL3w0SY-1">
          <mxGeometry relative="1" as="geometry">
            <Array as="points">
              <mxPoint x="745" y="1149" />
            </Array>
          </mxGeometry>
        </mxCell>
        <mxCell id="eKUzeH0nI4rjdPL3w0SY-32" value="&lt;b&gt;CharacterAnimationName&lt;/b&gt;" style="swimlane;fontStyle=0;childLayout=stackLayout;horizontal=1;startSize=26;fillColor=none;horizontalStack=0;resizeParent=1;resizeParentMax=0;resizeLast=0;collapsible=1;marginBottom=0;whiteSpace=wrap;html=1;" vertex="1" parent="zOyCUMjI-DACBVfXXY2o-1">
          <mxGeometry x="710" y="550" width="180" height="52" as="geometry" />
        </mxCell>
        <mxCell id="eKUzeH0nI4rjdPL3w0SY-35" value="+ field: type" style="text;strokeColor=none;fillColor=none;align=left;verticalAlign=top;spacingLeft=4;spacingRight=4;overflow=hidden;rotatable=0;points=[[0,0.5],[1,0.5]];portConstraint=eastwest;whiteSpace=wrap;html=1;" vertex="1" parent="eKUzeH0nI4rjdPL3w0SY-32">
          <mxGeometry y="26" width="180" height="26" as="geometry" />
        </mxCell>
        <mxCell id="eKUzeH0nI4rjdPL3w0SY-36" style="edgeStyle=orthogonalEdgeStyle;rounded=0;orthogonalLoop=1;jettySize=auto;html=1;dashed=1;endArrow=none;startFill=0;" edge="1" parent="zOyCUMjI-DACBVfXXY2o-1" source="xm2dH1QjAM5IwSRC4I6v-17" target="bju6o1A8lPEfDlK_xBNU-41">
          <mxGeometry relative="1" as="geometry" />
        </mxCell>
        <mxCell id="bju6o1A8lPEfDlK_xBNU-31" value="Management" style="swimlane;whiteSpace=wrap;html=1;" parent="1" vertex="1">
          <mxGeometry x="1080" y="70" width="520" height="510" as="geometry" />
        </mxCell>
        <mxCell id="bju6o1A8lPEfDlK_xBNU-36" value="«interface»&lt;br&gt;&lt;b&gt;IState&lt;/b&gt;" style="html=1;whiteSpace=wrap;" parent="bju6o1A8lPEfDlK_xBNU-31" vertex="1">
          <mxGeometry x="30" y="50" width="110" height="50" as="geometry" />
        </mxCell>
        <mxCell id="bju6o1A8lPEfDlK_xBNU-37" value="InputManager" style="swimlane;fontStyle=1;align=center;verticalAlign=top;childLayout=stackLayout;horizontal=1;startSize=26;horizontalStack=0;resizeParent=1;resizeParentMax=0;resizeLast=0;collapsible=1;marginBottom=0;whiteSpace=wrap;html=1;" parent="bju6o1A8lPEfDlK_xBNU-31" vertex="1">
          <mxGeometry x="170" y="50" width="160" height="86" as="geometry" />
        </mxCell>
        <mxCell id="bju6o1A8lPEfDlK_xBNU-38" value="+ field: type" style="text;strokeColor=none;fillColor=none;align=left;verticalAlign=top;spacingLeft=4;spacingRight=4;overflow=hidden;rotatable=0;points=[[0,0.5],[1,0.5]];portConstraint=eastwest;whiteSpace=wrap;html=1;" parent="bju6o1A8lPEfDlK_xBNU-37" vertex="1">
          <mxGeometry y="26" width="160" height="26" as="geometry" />
        </mxCell>
        <mxCell id="bju6o1A8lPEfDlK_xBNU-39" value="" style="line;strokeWidth=1;fillColor=none;align=left;verticalAlign=middle;spacingTop=-1;spacingLeft=3;spacingRight=3;rotatable=0;labelPosition=right;points=[];portConstraint=eastwest;strokeColor=inherit;" parent="bju6o1A8lPEfDlK_xBNU-37" vertex="1">
          <mxGeometry y="52" width="160" height="8" as="geometry" />
        </mxCell>
        <mxCell id="bju6o1A8lPEfDlK_xBNU-40" value="+ method(type): type" style="text;strokeColor=none;fillColor=none;align=left;verticalAlign=top;spacingLeft=4;spacingRight=4;overflow=hidden;rotatable=0;points=[[0,0.5],[1,0.5]];portConstraint=eastwest;whiteSpace=wrap;html=1;" parent="bju6o1A8lPEfDlK_xBNU-37" vertex="1">
          <mxGeometry y="60" width="160" height="26" as="geometry" />
        </mxCell>
        <mxCell id="DAK-FWUQh9UaPPSFwCzS-1" value="StateManager" style="swimlane;fontStyle=1;align=center;verticalAlign=top;childLayout=stackLayout;horizontal=1;startSize=26;horizontalStack=0;resizeParent=1;resizeParentMax=0;resizeLast=0;collapsible=1;marginBottom=0;whiteSpace=wrap;html=1;" parent="bju6o1A8lPEfDlK_xBNU-31" vertex="1">
          <mxGeometry x="30" y="180" width="260" height="112" as="geometry" />
        </mxCell>
        <mxCell id="DAK-FWUQh9UaPPSFwCzS-2" value="+ currentState: &lt;b&gt;IState&lt;/b&gt;" style="text;strokeColor=none;fillColor=none;align=left;verticalAlign=top;spacingLeft=4;spacingRight=4;overflow=hidden;rotatable=0;points=[[0,0.5],[1,0.5]];portConstraint=eastwest;whiteSpace=wrap;html=1;" parent="DAK-FWUQh9UaPPSFwCzS-1" vertex="1">
          <mxGeometry y="26" width="260" height="26" as="geometry" />
        </mxCell>
        <mxCell id="DAK-FWUQh9UaPPSFwCzS-3" value="" style="line;strokeWidth=1;fillColor=none;align=left;verticalAlign=middle;spacingTop=-1;spacingLeft=3;spacingRight=3;rotatable=0;labelPosition=right;points=[];portConstraint=eastwest;strokeColor=inherit;" parent="DAK-FWUQh9UaPPSFwCzS-1" vertex="1">
          <mxGeometry y="52" width="260" height="8" as="geometry" />
        </mxCell>
        <mxCell id="DAK-FWUQh9UaPPSFwCzS-4" value="- Update(): &lt;b&gt;void&lt;/b&gt;" style="text;strokeColor=none;fillColor=none;align=left;verticalAlign=top;spacingLeft=4;spacingRight=4;overflow=hidden;rotatable=0;points=[[0,0.5],[1,0.5]];portConstraint=eastwest;whiteSpace=wrap;html=1;" parent="DAK-FWUQh9UaPPSFwCzS-1" vertex="1">
          <mxGeometry y="60" width="260" height="26" as="geometry" />
        </mxCell>
        <mxCell id="DAK-FWUQh9UaPPSFwCzS-5" value="+ ChangeState(&lt;b&gt;IState newS&lt;/b&gt;tate): &lt;b&gt;void&lt;/b&gt;" style="text;strokeColor=none;fillColor=none;align=left;verticalAlign=top;spacingLeft=4;spacingRight=4;overflow=hidden;rotatable=0;points=[[0,0.5],[1,0.5]];portConstraint=eastwest;whiteSpace=wrap;html=1;" parent="DAK-FWUQh9UaPPSFwCzS-1" vertex="1">
          <mxGeometry y="86" width="260" height="26" as="geometry" />
        </mxCell>
        <mxCell id="1-FDPUNn8A2mafEI9I_r-1" value="Vertical Container" style="swimlane;whiteSpace=wrap;html=1;" parent="1" vertex="1">
          <mxGeometry x="120" y="760" width="200" height="200" as="geometry" />
        </mxCell>
        <mxCell id="1-FDPUNn8A2mafEI9I_r-3" value="Classname" style="swimlane;fontStyle=1;align=center;verticalAlign=top;childLayout=stackLayout;horizontal=1;startSize=26;horizontalStack=0;resizeParent=1;resizeParentMax=0;resizeLast=0;collapsible=1;marginBottom=0;whiteSpace=wrap;html=1;" parent="1-FDPUNn8A2mafEI9I_r-1" vertex="1">
          <mxGeometry x="20" y="50" width="160" height="86" as="geometry" />
        </mxCell>
        <mxCell id="1-FDPUNn8A2mafEI9I_r-4" value="+ field: type" style="text;strokeColor=none;fillColor=none;align=left;verticalAlign=top;spacingLeft=4;spacingRight=4;overflow=hidden;rotatable=0;points=[[0,0.5],[1,0.5]];portConstraint=eastwest;whiteSpace=wrap;html=1;" parent="1-FDPUNn8A2mafEI9I_r-3" vertex="1">
          <mxGeometry y="26" width="160" height="26" as="geometry" />
        </mxCell>
        <mxCell id="1-FDPUNn8A2mafEI9I_r-5" value="" style="line;strokeWidth=1;fillColor=none;align=left;verticalAlign=middle;spacingTop=-1;spacingLeft=3;spacingRight=3;rotatable=0;labelPosition=right;points=[];portConstraint=eastwest;strokeColor=inherit;" parent="1-FDPUNn8A2mafEI9I_r-3" vertex="1">
          <mxGeometry y="52" width="160" height="8" as="geometry" />
        </mxCell>
        <mxCell id="1-FDPUNn8A2mafEI9I_r-6" value="+ method(type): type" style="text;strokeColor=none;fillColor=none;align=left;verticalAlign=top;spacingLeft=4;spacingRight=4;overflow=hidden;rotatable=0;points=[[0,0.5],[1,0.5]];portConstraint=eastwest;whiteSpace=wrap;html=1;" parent="1-FDPUNn8A2mafEI9I_r-3" vertex="1">
          <mxGeometry y="60" width="160" height="26" as="geometry" />
        </mxCell>
        <mxCell id="1-FDPUNn8A2mafEI9I_r-2" value="Environment" style="swimlane;whiteSpace=wrap;html=1;" parent="1" vertex="1">
          <mxGeometry x="400" y="880" width="620" height="500" as="geometry" />
        </mxCell>
        <mxCell id="1-FDPUNn8A2mafEI9I_r-7" value="TimeManager" style="swimlane;fontStyle=1;align=center;verticalAlign=top;childLayout=stackLayout;horizontal=1;startSize=26;horizontalStack=0;resizeParent=1;resizeParentMax=0;resizeLast=0;collapsible=1;marginBottom=0;whiteSpace=wrap;html=1;" parent="1-FDPUNn8A2mafEI9I_r-2" vertex="1">
          <mxGeometry x="35" y="57" width="160" height="86" as="geometry" />
        </mxCell>
        <mxCell id="1-FDPUNn8A2mafEI9I_r-8" value="+ field: type" style="text;strokeColor=none;fillColor=none;align=left;verticalAlign=top;spacingLeft=4;spacingRight=4;overflow=hidden;rotatable=0;points=[[0,0.5],[1,0.5]];portConstraint=eastwest;whiteSpace=wrap;html=1;" parent="1-FDPUNn8A2mafEI9I_r-7" vertex="1">
          <mxGeometry y="26" width="160" height="26" as="geometry" />
        </mxCell>
        <mxCell id="1-FDPUNn8A2mafEI9I_r-9" value="" style="line;strokeWidth=1;fillColor=none;align=left;verticalAlign=middle;spacingTop=-1;spacingLeft=3;spacingRight=3;rotatable=0;labelPosition=right;points=[];portConstraint=eastwest;strokeColor=inherit;" parent="1-FDPUNn8A2mafEI9I_r-7" vertex="1">
          <mxGeometry y="52" width="160" height="8" as="geometry" />
        </mxCell>
        <mxCell id="1-FDPUNn8A2mafEI9I_r-10" value="+ method(type): type" style="text;strokeColor=none;fillColor=none;align=left;verticalAlign=top;spacingLeft=4;spacingRight=4;overflow=hidden;rotatable=0;points=[[0,0.5],[1,0.5]];portConstraint=eastwest;whiteSpace=wrap;html=1;" parent="1-FDPUNn8A2mafEI9I_r-7" vertex="1">
          <mxGeometry y="60" width="160" height="26" as="geometry" />
        </mxCell>
        <mxCell id="1-FDPUNn8A2mafEI9I_r-11" value="WeatherManager" style="swimlane;fontStyle=1;align=center;verticalAlign=top;childLayout=stackLayout;horizontal=1;startSize=26;horizontalStack=0;resizeParent=1;resizeParentMax=0;resizeLast=0;collapsible=1;marginBottom=0;whiteSpace=wrap;html=1;" parent="1-FDPUNn8A2mafEI9I_r-2" vertex="1">
          <mxGeometry x="280" y="57" width="160" height="86" as="geometry" />
        </mxCell>
        <mxCell id="1-FDPUNn8A2mafEI9I_r-12" value="+ field: type" style="text;strokeColor=none;fillColor=none;align=left;verticalAlign=top;spacingLeft=4;spacingRight=4;overflow=hidden;rotatable=0;points=[[0,0.5],[1,0.5]];portConstraint=eastwest;whiteSpace=wrap;html=1;" parent="1-FDPUNn8A2mafEI9I_r-11" vertex="1">
          <mxGeometry y="26" width="160" height="26" as="geometry" />
        </mxCell>
        <mxCell id="1-FDPUNn8A2mafEI9I_r-13" value="" style="line;strokeWidth=1;fillColor=none;align=left;verticalAlign=middle;spacingTop=-1;spacingLeft=3;spacingRight=3;rotatable=0;labelPosition=right;points=[];portConstraint=eastwest;strokeColor=inherit;" parent="1-FDPUNn8A2mafEI9I_r-11" vertex="1">
          <mxGeometry y="52" width="160" height="8" as="geometry" />
        </mxCell>
        <mxCell id="1-FDPUNn8A2mafEI9I_r-14" value="+ method(type): type" style="text;strokeColor=none;fillColor=none;align=left;verticalAlign=top;spacingLeft=4;spacingRight=4;overflow=hidden;rotatable=0;points=[[0,0.5],[1,0.5]];portConstraint=eastwest;whiteSpace=wrap;html=1;" parent="1-FDPUNn8A2mafEI9I_r-11" vertex="1">
          <mxGeometry y="60" width="160" height="26" as="geometry" />
        </mxCell>
        <mxCell id="1-FDPUNn8A2mafEI9I_r-15" value="EnvironmentObserver" style="swimlane;fontStyle=1;align=center;verticalAlign=top;childLayout=stackLayout;horizontal=1;startSize=26;horizontalStack=0;resizeParent=1;resizeParentMax=0;resizeLast=0;collapsible=1;marginBottom=0;whiteSpace=wrap;html=1;" parent="1-FDPUNn8A2mafEI9I_r-2" vertex="1">
          <mxGeometry x="35" y="260" width="190" height="86" as="geometry" />
        </mxCell>
        <mxCell id="1-FDPUNn8A2mafEI9I_r-16" value="+ field: type" style="text;strokeColor=none;fillColor=none;align=left;verticalAlign=top;spacingLeft=4;spacingRight=4;overflow=hidden;rotatable=0;points=[[0,0.5],[1,0.5]];portConstraint=eastwest;whiteSpace=wrap;html=1;" parent="1-FDPUNn8A2mafEI9I_r-15" vertex="1">
          <mxGeometry y="26" width="190" height="26" as="geometry" />
        </mxCell>
        <mxCell id="1-FDPUNn8A2mafEI9I_r-17" value="" style="line;strokeWidth=1;fillColor=none;align=left;verticalAlign=middle;spacingTop=-1;spacingLeft=3;spacingRight=3;rotatable=0;labelPosition=right;points=[];portConstraint=eastwest;strokeColor=inherit;" parent="1-FDPUNn8A2mafEI9I_r-15" vertex="1">
          <mxGeometry y="52" width="190" height="8" as="geometry" />
        </mxCell>
        <mxCell id="1-FDPUNn8A2mafEI9I_r-18" value="+ method(type): type" style="text;strokeColor=none;fillColor=none;align=left;verticalAlign=top;spacingLeft=4;spacingRight=4;overflow=hidden;rotatable=0;points=[[0,0.5],[1,0.5]];portConstraint=eastwest;whiteSpace=wrap;html=1;" parent="1-FDPUNn8A2mafEI9I_r-15" vertex="1">
          <mxGeometry y="60" width="190" height="26" as="geometry" />
        </mxCell>
        <mxCell id="tZWPadlQTstgaSjU6zRa-1" value="Crafting" style="swimlane;whiteSpace=wrap;html=1;" parent="1" vertex="1">
          <mxGeometry x="1090" y="690" width="930" height="610" as="geometry" />
        </mxCell>
        <mxCell id="tZWPadlQTstgaSjU6zRa-2" value="Shirt" style="swimlane;fontStyle=1;align=center;verticalAlign=top;childLayout=stackLayout;horizontal=1;startSize=26;horizontalStack=0;resizeParent=1;resizeParentMax=0;resizeLast=0;collapsible=1;marginBottom=0;whiteSpace=wrap;html=1;" parent="tZWPadlQTstgaSjU6zRa-1" vertex="1">
          <mxGeometry x="20" y="50" width="270" height="86" as="geometry" />
        </mxCell>
        <mxCell id="tZWPadlQTstgaSjU6zRa-3" value="+ shirtScriptableObj:&amp;nbsp;&lt;span style=&quot;font-weight: 700; text-align: center;&quot;&gt;ShirtScriptableObject&lt;/span&gt;" style="text;strokeColor=none;fillColor=none;align=left;verticalAlign=top;spacingLeft=4;spacingRight=4;overflow=hidden;rotatable=0;points=[[0,0.5],[1,0.5]];portConstraint=eastwest;whiteSpace=wrap;html=1;" parent="tZWPadlQTstgaSjU6zRa-2" vertex="1">
          <mxGeometry y="26" width="270" height="26" as="geometry" />
        </mxCell>
        <mxCell id="tZWPadlQTstgaSjU6zRa-4" value="" style="line;strokeWidth=1;fillColor=none;align=left;verticalAlign=middle;spacingTop=-1;spacingLeft=3;spacingRight=3;rotatable=0;labelPosition=right;points=[];portConstraint=eastwest;strokeColor=inherit;" parent="tZWPadlQTstgaSjU6zRa-2" vertex="1">
          <mxGeometry y="52" width="270" height="8" as="geometry" />
        </mxCell>
        <mxCell id="tZWPadlQTstgaSjU6zRa-5" value="+ method(type): type" style="text;strokeColor=none;fillColor=none;align=left;verticalAlign=top;spacingLeft=4;spacingRight=4;overflow=hidden;rotatable=0;points=[[0,0.5],[1,0.5]];portConstraint=eastwest;whiteSpace=wrap;html=1;" parent="tZWPadlQTstgaSjU6zRa-2" vertex="1">
          <mxGeometry y="60" width="270" height="26" as="geometry" />
        </mxCell>
        <mxCell id="tZWPadlQTstgaSjU6zRa-6" value="Pant" style="swimlane;fontStyle=1;align=center;verticalAlign=top;childLayout=stackLayout;horizontal=1;startSize=26;horizontalStack=0;resizeParent=1;resizeParentMax=0;resizeLast=0;collapsible=1;marginBottom=0;whiteSpace=wrap;html=1;" parent="tZWPadlQTstgaSjU6zRa-1" vertex="1">
          <mxGeometry x="20" y="180" width="260" height="86" as="geometry" />
        </mxCell>
        <mxCell id="tZWPadlQTstgaSjU6zRa-7" value="+ pantScriptableObj: &lt;b&gt;Pant&lt;/b&gt;&lt;span style=&quot;font-weight: 700; text-align: center;&quot;&gt;ScriptableObject&lt;/span&gt;" style="text;strokeColor=none;fillColor=none;align=left;verticalAlign=top;spacingLeft=4;spacingRight=4;overflow=hidden;rotatable=0;points=[[0,0.5],[1,0.5]];portConstraint=eastwest;whiteSpace=wrap;html=1;" parent="tZWPadlQTstgaSjU6zRa-6" vertex="1">
          <mxGeometry y="26" width="260" height="26" as="geometry" />
        </mxCell>
        <mxCell id="tZWPadlQTstgaSjU6zRa-8" value="" style="line;strokeWidth=1;fillColor=none;align=left;verticalAlign=middle;spacingTop=-1;spacingLeft=3;spacingRight=3;rotatable=0;labelPosition=right;points=[];portConstraint=eastwest;strokeColor=inherit;" parent="tZWPadlQTstgaSjU6zRa-6" vertex="1">
          <mxGeometry y="52" width="260" height="8" as="geometry" />
        </mxCell>
        <mxCell id="tZWPadlQTstgaSjU6zRa-9" value="+ method(type): type" style="text;strokeColor=none;fillColor=none;align=left;verticalAlign=top;spacingLeft=4;spacingRight=4;overflow=hidden;rotatable=0;points=[[0,0.5],[1,0.5]];portConstraint=eastwest;whiteSpace=wrap;html=1;" parent="tZWPadlQTstgaSjU6zRa-6" vertex="1">
          <mxGeometry y="60" width="260" height="26" as="geometry" />
        </mxCell>
        <mxCell id="tZWPadlQTstgaSjU6zRa-10" value="Shoes" style="swimlane;fontStyle=1;align=center;verticalAlign=top;childLayout=stackLayout;horizontal=1;startSize=26;horizontalStack=0;resizeParent=1;resizeParentMax=0;resizeLast=0;collapsible=1;marginBottom=0;whiteSpace=wrap;html=1;" parent="tZWPadlQTstgaSjU6zRa-1" vertex="1">
          <mxGeometry x="20" y="287" width="270" height="86" as="geometry" />
        </mxCell>
        <mxCell id="tZWPadlQTstgaSjU6zRa-11" value="+ shoesScriptableObj: &lt;b&gt;Shoes&lt;/b&gt;&lt;span style=&quot;font-weight: 700; text-align: center;&quot;&gt;ScriptableObject&lt;/span&gt;" style="text;strokeColor=none;fillColor=none;align=left;verticalAlign=top;spacingLeft=4;spacingRight=4;overflow=hidden;rotatable=0;points=[[0,0.5],[1,0.5]];portConstraint=eastwest;whiteSpace=wrap;html=1;" parent="tZWPadlQTstgaSjU6zRa-10" vertex="1">
          <mxGeometry y="26" width="270" height="26" as="geometry" />
        </mxCell>
        <mxCell id="tZWPadlQTstgaSjU6zRa-12" value="" style="line;strokeWidth=1;fillColor=none;align=left;verticalAlign=middle;spacingTop=-1;spacingLeft=3;spacingRight=3;rotatable=0;labelPosition=right;points=[];portConstraint=eastwest;strokeColor=inherit;" parent="tZWPadlQTstgaSjU6zRa-10" vertex="1">
          <mxGeometry y="52" width="270" height="8" as="geometry" />
        </mxCell>
        <mxCell id="tZWPadlQTstgaSjU6zRa-13" value="+ method(type): type" style="text;strokeColor=none;fillColor=none;align=left;verticalAlign=top;spacingLeft=4;spacingRight=4;overflow=hidden;rotatable=0;points=[[0,0.5],[1,0.5]];portConstraint=eastwest;whiteSpace=wrap;html=1;" parent="tZWPadlQTstgaSjU6zRa-10" vertex="1">
          <mxGeometry y="60" width="270" height="26" as="geometry" />
        </mxCell>
        <mxCell id="tZWPadlQTstgaSjU6zRa-14" value="Hat" style="swimlane;fontStyle=1;align=center;verticalAlign=top;childLayout=stackLayout;horizontal=1;startSize=26;horizontalStack=0;resizeParent=1;resizeParentMax=0;resizeLast=0;collapsible=1;marginBottom=0;whiteSpace=wrap;html=1;" parent="tZWPadlQTstgaSjU6zRa-1" vertex="1">
          <mxGeometry x="20" y="400" width="260" height="86" as="geometry" />
        </mxCell>
        <mxCell id="tZWPadlQTstgaSjU6zRa-15" value="+ hatScriptableObj: &lt;b&gt;Hat&lt;/b&gt;&lt;span style=&quot;font-weight: 700; text-align: center;&quot;&gt;ScriptableObject&lt;/span&gt;" style="text;strokeColor=none;fillColor=none;align=left;verticalAlign=top;spacingLeft=4;spacingRight=4;overflow=hidden;rotatable=0;points=[[0,0.5],[1,0.5]];portConstraint=eastwest;whiteSpace=wrap;html=1;" parent="tZWPadlQTstgaSjU6zRa-14" vertex="1">
          <mxGeometry y="26" width="260" height="26" as="geometry" />
        </mxCell>
        <mxCell id="tZWPadlQTstgaSjU6zRa-16" value="" style="line;strokeWidth=1;fillColor=none;align=left;verticalAlign=middle;spacingTop=-1;spacingLeft=3;spacingRight=3;rotatable=0;labelPosition=right;points=[];portConstraint=eastwest;strokeColor=inherit;" parent="tZWPadlQTstgaSjU6zRa-14" vertex="1">
          <mxGeometry y="52" width="260" height="8" as="geometry" />
        </mxCell>
        <mxCell id="tZWPadlQTstgaSjU6zRa-17" value="+ method(type): type" style="text;strokeColor=none;fillColor=none;align=left;verticalAlign=top;spacingLeft=4;spacingRight=4;overflow=hidden;rotatable=0;points=[[0,0.5],[1,0.5]];portConstraint=eastwest;whiteSpace=wrap;html=1;" parent="tZWPadlQTstgaSjU6zRa-14" vertex="1">
          <mxGeometry y="60" width="260" height="26" as="geometry" />
        </mxCell>
        <mxCell id="tZWPadlQTstgaSjU6zRa-18" value="ShirtScriptableObject" style="swimlane;fontStyle=1;align=center;verticalAlign=top;childLayout=stackLayout;horizontal=1;startSize=26;horizontalStack=0;resizeParent=1;resizeParentMax=0;resizeLast=0;collapsible=1;marginBottom=0;whiteSpace=wrap;html=1;" parent="tZWPadlQTstgaSjU6zRa-1" vertex="1">
          <mxGeometry x="350" y="50" width="180" height="60" as="geometry" />
        </mxCell>
        <mxCell id="tZWPadlQTstgaSjU6zRa-19" value="+ sprite" style="text;strokeColor=none;fillColor=none;align=left;verticalAlign=top;spacingLeft=4;spacingRight=4;overflow=hidden;rotatable=0;points=[[0,0.5],[1,0.5]];portConstraint=eastwest;whiteSpace=wrap;html=1;" parent="tZWPadlQTstgaSjU6zRa-18" vertex="1">
          <mxGeometry y="26" width="180" height="26" as="geometry" />
        </mxCell>
        <mxCell id="tZWPadlQTstgaSjU6zRa-20" value="" style="line;strokeWidth=1;fillColor=none;align=left;verticalAlign=middle;spacingTop=-1;spacingLeft=3;spacingRight=3;rotatable=0;labelPosition=right;points=[];portConstraint=eastwest;strokeColor=inherit;" parent="tZWPadlQTstgaSjU6zRa-18" vertex="1">
          <mxGeometry y="52" width="180" height="8" as="geometry" />
        </mxCell>
        <mxCell id="tZWPadlQTstgaSjU6zRa-22" value="PantScriptableObject" style="swimlane;fontStyle=1;align=center;verticalAlign=top;childLayout=stackLayout;horizontal=1;startSize=26;horizontalStack=0;resizeParent=1;resizeParentMax=0;resizeLast=0;collapsible=1;marginBottom=0;whiteSpace=wrap;html=1;" parent="tZWPadlQTstgaSjU6zRa-1" vertex="1">
          <mxGeometry x="350" y="180" width="160" height="60" as="geometry" />
        </mxCell>
        <mxCell id="tZWPadlQTstgaSjU6zRa-23" value="+ sprite" style="text;strokeColor=none;fillColor=none;align=left;verticalAlign=top;spacingLeft=4;spacingRight=4;overflow=hidden;rotatable=0;points=[[0,0.5],[1,0.5]];portConstraint=eastwest;whiteSpace=wrap;html=1;" parent="tZWPadlQTstgaSjU6zRa-22" vertex="1">
          <mxGeometry y="26" width="160" height="26" as="geometry" />
        </mxCell>
        <mxCell id="tZWPadlQTstgaSjU6zRa-24" value="" style="line;strokeWidth=1;fillColor=none;align=left;verticalAlign=middle;spacingTop=-1;spacingLeft=3;spacingRight=3;rotatable=0;labelPosition=right;points=[];portConstraint=eastwest;strokeColor=inherit;" parent="tZWPadlQTstgaSjU6zRa-22" vertex="1">
          <mxGeometry y="52" width="160" height="8" as="geometry" />
        </mxCell>
        <mxCell id="tZWPadlQTstgaSjU6zRa-26" value="ShoesScriptableObject" style="swimlane;fontStyle=1;align=center;verticalAlign=top;childLayout=stackLayout;horizontal=1;startSize=26;horizontalStack=0;resizeParent=1;resizeParentMax=0;resizeLast=0;collapsible=1;marginBottom=0;whiteSpace=wrap;html=1;" parent="tZWPadlQTstgaSjU6zRa-1" vertex="1">
          <mxGeometry x="350" y="287" width="170" height="60" as="geometry" />
        </mxCell>
        <mxCell id="tZWPadlQTstgaSjU6zRa-27" value="+ sprite" style="text;strokeColor=none;fillColor=none;align=left;verticalAlign=top;spacingLeft=4;spacingRight=4;overflow=hidden;rotatable=0;points=[[0,0.5],[1,0.5]];portConstraint=eastwest;whiteSpace=wrap;html=1;" parent="tZWPadlQTstgaSjU6zRa-26" vertex="1">
          <mxGeometry y="26" width="170" height="26" as="geometry" />
        </mxCell>
        <mxCell id="tZWPadlQTstgaSjU6zRa-28" value="" style="line;strokeWidth=1;fillColor=none;align=left;verticalAlign=middle;spacingTop=-1;spacingLeft=3;spacingRight=3;rotatable=0;labelPosition=right;points=[];portConstraint=eastwest;strokeColor=inherit;" parent="tZWPadlQTstgaSjU6zRa-26" vertex="1">
          <mxGeometry y="52" width="170" height="8" as="geometry" />
        </mxCell>
        <mxCell id="tZWPadlQTstgaSjU6zRa-30" value="HatScriptableObject" style="swimlane;fontStyle=1;align=center;verticalAlign=top;childLayout=stackLayout;horizontal=1;startSize=26;horizontalStack=0;resizeParent=1;resizeParentMax=0;resizeLast=0;collapsible=1;marginBottom=0;whiteSpace=wrap;html=1;" parent="tZWPadlQTstgaSjU6zRa-1" vertex="1">
          <mxGeometry x="350" y="400" width="160" height="60" as="geometry" />
        </mxCell>
        <mxCell id="tZWPadlQTstgaSjU6zRa-31" value="+ sprite" style="text;strokeColor=none;fillColor=none;align=left;verticalAlign=top;spacingLeft=4;spacingRight=4;overflow=hidden;rotatable=0;points=[[0,0.5],[1,0.5]];portConstraint=eastwest;whiteSpace=wrap;html=1;" parent="tZWPadlQTstgaSjU6zRa-30" vertex="1">
          <mxGeometry y="26" width="160" height="26" as="geometry" />
        </mxCell>
        <mxCell id="tZWPadlQTstgaSjU6zRa-32" value="" style="line;strokeWidth=1;fillColor=none;align=left;verticalAlign=middle;spacingTop=-1;spacingLeft=3;spacingRight=3;rotatable=0;labelPosition=right;points=[];portConstraint=eastwest;strokeColor=inherit;" parent="tZWPadlQTstgaSjU6zRa-30" vertex="1">
          <mxGeometry y="52" width="160" height="8" as="geometry" />
        </mxCell>
        <mxCell id="DAK-FWUQh9UaPPSFwCzS-7" style="edgeStyle=orthogonalEdgeStyle;rounded=0;orthogonalLoop=1;jettySize=auto;html=1;dashed=1;" parent="1" source="DAK-FWUQh9UaPPSFwCzS-6" target="DAK-FWUQh9UaPPSFwCzS-1" edge="1">
          <mxGeometry relative="1" as="geometry" />
        </mxCell>
      </root>
    </mxGraphModel>
  </diagram>
  <diagram id="JOyO_vSGm53ruru5FJ6k" name="draft">
    <mxGraphModel dx="2422" dy="1503" grid="1" gridSize="10" guides="1" tooltips="1" connect="1" arrows="1" fold="1" page="1" pageScale="1" pageWidth="1169" pageHeight="827" math="0" shadow="0">
      <root>
        <mxCell id="0" />
        <mxCell id="1" parent="0" />
        <mxCell id="bMypyMYFsJgvA4w04-MM-1" value="PlayerController" style="swimlane;fontStyle=1;align=center;verticalAlign=top;childLayout=stackLayout;horizontal=1;startSize=26;horizontalStack=0;resizeParent=1;resizeParentMax=0;resizeLast=0;collapsible=1;marginBottom=0;whiteSpace=wrap;html=1;" parent="1" vertex="1">
          <mxGeometry x="150" y="160" width="160" height="164" as="geometry" />
        </mxCell>
        <mxCell id="bMypyMYFsJgvA4w04-MM-2" value="currentDir &amp;lt;static&amp;gt;" style="text;strokeColor=none;fillColor=none;align=left;verticalAlign=top;spacingLeft=4;spacingRight=4;overflow=hidden;rotatable=0;points=[[0,0.5],[1,0.5]];portConstraint=eastwest;whiteSpace=wrap;html=1;" parent="bMypyMYFsJgvA4w04-MM-1" vertex="1">
          <mxGeometry y="26" width="160" height="26" as="geometry" />
        </mxCell>
        <mxCell id="8XJsudTFEaAcroN3z3Og-21" value="playerMovement" style="text;strokeColor=none;fillColor=none;align=left;verticalAlign=top;spacingLeft=4;spacingRight=4;overflow=hidden;rotatable=0;points=[[0,0.5],[1,0.5]];portConstraint=eastwest;whiteSpace=wrap;html=1;" vertex="1" parent="bMypyMYFsJgvA4w04-MM-1">
          <mxGeometry y="52" width="160" height="26" as="geometry" />
        </mxCell>
        <mxCell id="8XJsudTFEaAcroN3z3Og-37" value="stateManager" style="text;strokeColor=none;fillColor=none;align=left;verticalAlign=top;spacingLeft=4;spacingRight=4;overflow=hidden;rotatable=0;points=[[0,0.5],[1,0.5]];portConstraint=eastwest;whiteSpace=wrap;html=1;" vertex="1" parent="bMypyMYFsJgvA4w04-MM-1">
          <mxGeometry y="78" width="160" height="26" as="geometry" />
        </mxCell>
        <mxCell id="bMypyMYFsJgvA4w04-MM-3" value="" style="line;strokeWidth=1;fillColor=none;align=left;verticalAlign=middle;spacingTop=-1;spacingLeft=3;spacingRight=3;rotatable=0;labelPosition=right;points=[];portConstraint=eastwest;strokeColor=inherit;" parent="bMypyMYFsJgvA4w04-MM-1" vertex="1">
          <mxGeometry y="104" width="160" height="8" as="geometry" />
        </mxCell>
        <mxCell id="bMypyMYFsJgvA4w04-MM-4" value="UpdateCurrentDirection()" style="text;strokeColor=none;fillColor=none;align=left;verticalAlign=top;spacingLeft=4;spacingRight=4;overflow=hidden;rotatable=0;points=[[0,0.5],[1,0.5]];portConstraint=eastwest;whiteSpace=wrap;html=1;" parent="bMypyMYFsJgvA4w04-MM-1" vertex="1">
          <mxGeometry y="112" width="160" height="26" as="geometry" />
        </mxCell>
        <mxCell id="8XJsudTFEaAcroN3z3Og-32" value="MovingHandle()" style="text;strokeColor=none;fillColor=none;align=left;verticalAlign=top;spacingLeft=4;spacingRight=4;overflow=hidden;rotatable=0;points=[[0,0.5],[1,0.5]];portConstraint=eastwest;whiteSpace=wrap;html=1;" vertex="1" parent="bMypyMYFsJgvA4w04-MM-1">
          <mxGeometry y="138" width="160" height="26" as="geometry" />
        </mxCell>
        <mxCell id="bMypyMYFsJgvA4w04-MM-5" value="PlayerMovement" style="swimlane;fontStyle=1;align=center;verticalAlign=top;childLayout=stackLayout;horizontal=1;startSize=26;horizontalStack=0;resizeParent=1;resizeParentMax=0;resizeLast=0;collapsible=1;marginBottom=0;whiteSpace=wrap;html=1;" parent="1" vertex="1">
          <mxGeometry x="505" y="220" width="160" height="138" as="geometry" />
        </mxCell>
        <mxCell id="bMypyMYFsJgvA4w04-MM-6" value="dafaultSpeed &amp;lt;static&amp;gt;" style="text;strokeColor=none;fillColor=none;align=left;verticalAlign=top;spacingLeft=4;spacingRight=4;overflow=hidden;rotatable=0;points=[[0,0.5],[1,0.5]];portConstraint=eastwest;whiteSpace=wrap;html=1;" parent="bMypyMYFsJgvA4w04-MM-5" vertex="1">
          <mxGeometry y="26" width="160" height="26" as="geometry" />
        </mxCell>
        <mxCell id="8XJsudTFEaAcroN3z3Og-42" value="speed" style="text;strokeColor=none;fillColor=none;align=left;verticalAlign=top;spacingLeft=4;spacingRight=4;overflow=hidden;rotatable=0;points=[[0,0.5],[1,0.5]];portConstraint=eastwest;whiteSpace=wrap;html=1;" vertex="1" parent="bMypyMYFsJgvA4w04-MM-5">
          <mxGeometry y="52" width="160" height="26" as="geometry" />
        </mxCell>
        <mxCell id="bMypyMYFsJgvA4w04-MM-7" value="" style="line;strokeWidth=1;fillColor=none;align=left;verticalAlign=middle;spacingTop=-1;spacingLeft=3;spacingRight=3;rotatable=0;labelPosition=right;points=[];portConstraint=eastwest;strokeColor=inherit;" parent="bMypyMYFsJgvA4w04-MM-5" vertex="1">
          <mxGeometry y="78" width="160" height="8" as="geometry" />
        </mxCell>
        <mxCell id="bMypyMYFsJgvA4w04-MM-8" value="Moving()" style="text;strokeColor=none;fillColor=none;align=left;verticalAlign=top;spacingLeft=4;spacingRight=4;overflow=hidden;rotatable=0;points=[[0,0.5],[1,0.5]];portConstraint=eastwest;whiteSpace=wrap;html=1;" parent="bMypyMYFsJgvA4w04-MM-5" vertex="1">
          <mxGeometry y="86" width="160" height="26" as="geometry" />
        </mxCell>
        <mxCell id="8XJsudTFEaAcroN3z3Og-43" value="ChangeSpeed(&lt;b&gt;float &lt;/b&gt;speed)" style="text;strokeColor=none;fillColor=none;align=left;verticalAlign=top;spacingLeft=4;spacingRight=4;overflow=hidden;rotatable=0;points=[[0,0.5],[1,0.5]];portConstraint=eastwest;whiteSpace=wrap;html=1;" vertex="1" parent="bMypyMYFsJgvA4w04-MM-5">
          <mxGeometry y="112" width="160" height="26" as="geometry" />
        </mxCell>
        <mxCell id="bMypyMYFsJgvA4w04-MM-9" value="InputManager" style="swimlane;fontStyle=1;align=center;verticalAlign=top;childLayout=stackLayout;horizontal=1;startSize=26;horizontalStack=0;resizeParent=1;resizeParentMax=0;resizeLast=0;collapsible=1;marginBottom=0;whiteSpace=wrap;html=1;" parent="1" vertex="1">
          <mxGeometry x="-110" y="480" width="160" height="86" as="geometry" />
        </mxCell>
        <mxCell id="bMypyMYFsJgvA4w04-MM-10" value="+ field: type" style="text;strokeColor=none;fillColor=none;align=left;verticalAlign=top;spacingLeft=4;spacingRight=4;overflow=hidden;rotatable=0;points=[[0,0.5],[1,0.5]];portConstraint=eastwest;whiteSpace=wrap;html=1;" parent="bMypyMYFsJgvA4w04-MM-9" vertex="1">
          <mxGeometry y="26" width="160" height="26" as="geometry" />
        </mxCell>
        <mxCell id="bMypyMYFsJgvA4w04-MM-11" value="" style="line;strokeWidth=1;fillColor=none;align=left;verticalAlign=middle;spacingTop=-1;spacingLeft=3;spacingRight=3;rotatable=0;labelPosition=right;points=[];portConstraint=eastwest;strokeColor=inherit;" parent="bMypyMYFsJgvA4w04-MM-9" vertex="1">
          <mxGeometry y="52" width="160" height="8" as="geometry" />
        </mxCell>
        <mxCell id="bMypyMYFsJgvA4w04-MM-12" value="+ method(type): type" style="text;strokeColor=none;fillColor=none;align=left;verticalAlign=top;spacingLeft=4;spacingRight=4;overflow=hidden;rotatable=0;points=[[0,0.5],[1,0.5]];portConstraint=eastwest;whiteSpace=wrap;html=1;" parent="bMypyMYFsJgvA4w04-MM-9" vertex="1">
          <mxGeometry y="60" width="160" height="26" as="geometry" />
        </mxCell>
        <mxCell id="bMypyMYFsJgvA4w04-MM-13" style="edgeStyle=orthogonalEdgeStyle;rounded=0;orthogonalLoop=1;jettySize=auto;html=1;dashed=1;fillColor=#e51400;strokeColor=#B20000;" parent="1" source="bMypyMYFsJgvA4w04-MM-4" target="bMypyMYFsJgvA4w04-MM-9" edge="1">
          <mxGeometry relative="1" as="geometry">
            <Array as="points">
              <mxPoint x="-30" y="290" />
            </Array>
          </mxGeometry>
        </mxCell>
        <mxCell id="8XJsudTFEaAcroN3z3Og-28" style="edgeStyle=orthogonalEdgeStyle;rounded=0;orthogonalLoop=1;jettySize=auto;html=1;endArrow=block;endFill=0;endSize=16;" edge="1" parent="1" source="bMypyMYFsJgvA4w04-MM-15" target="8XJsudTFEaAcroN3z3Og-15">
          <mxGeometry relative="1" as="geometry" />
        </mxCell>
        <mxCell id="bMypyMYFsJgvA4w04-MM-15" value="PlayerMovingState" style="swimlane;fontStyle=1;align=center;verticalAlign=top;childLayout=stackLayout;horizontal=1;startSize=26;horizontalStack=0;resizeParent=1;resizeParentMax=0;resizeLast=0;collapsible=1;marginBottom=0;whiteSpace=wrap;html=1;" parent="1" vertex="1">
          <mxGeometry x="870" y="90" width="160" height="138" as="geometry" />
        </mxCell>
        <mxCell id="8XJsudTFEaAcroN3z3Og-44" value="controller" style="text;strokeColor=none;fillColor=none;align=left;verticalAlign=top;spacingLeft=4;spacingRight=4;overflow=hidden;rotatable=0;points=[[0,0.5],[1,0.5]];portConstraint=eastwest;whiteSpace=wrap;html=1;" vertex="1" parent="bMypyMYFsJgvA4w04-MM-15">
          <mxGeometry y="26" width="160" height="26" as="geometry" />
        </mxCell>
        <mxCell id="bMypyMYFsJgvA4w04-MM-17" value="" style="line;strokeWidth=1;fillColor=none;align=left;verticalAlign=middle;spacingTop=-1;spacingLeft=3;spacingRight=3;rotatable=0;labelPosition=right;points=[];portConstraint=eastwest;strokeColor=inherit;" parent="bMypyMYFsJgvA4w04-MM-15" vertex="1">
          <mxGeometry y="52" width="160" height="8" as="geometry" />
        </mxCell>
        <mxCell id="8XJsudTFEaAcroN3z3Og-52" value="Enter()" style="text;strokeColor=none;fillColor=none;align=left;verticalAlign=top;spacingLeft=4;spacingRight=4;overflow=hidden;rotatable=0;points=[[0,0.5],[1,0.5]];portConstraint=eastwest;whiteSpace=wrap;html=1;" vertex="1" parent="bMypyMYFsJgvA4w04-MM-15">
          <mxGeometry y="60" width="160" height="26" as="geometry" />
        </mxCell>
        <mxCell id="bMypyMYFsJgvA4w04-MM-18" value="Execute()" style="text;strokeColor=none;fillColor=none;align=left;verticalAlign=top;spacingLeft=4;spacingRight=4;overflow=hidden;rotatable=0;points=[[0,0.5],[1,0.5]];portConstraint=eastwest;whiteSpace=wrap;html=1;" parent="bMypyMYFsJgvA4w04-MM-15" vertex="1">
          <mxGeometry y="86" width="160" height="26" as="geometry" />
        </mxCell>
        <mxCell id="8XJsudTFEaAcroN3z3Og-53" value="Exit()" style="text;strokeColor=none;fillColor=none;align=left;verticalAlign=top;spacingLeft=4;spacingRight=4;overflow=hidden;rotatable=0;points=[[0,0.5],[1,0.5]];portConstraint=eastwest;whiteSpace=wrap;html=1;" vertex="1" parent="bMypyMYFsJgvA4w04-MM-15">
          <mxGeometry y="112" width="160" height="26" as="geometry" />
        </mxCell>
        <mxCell id="bMypyMYFsJgvA4w04-MM-19" style="edgeStyle=orthogonalEdgeStyle;rounded=0;orthogonalLoop=1;jettySize=auto;html=1;" parent="1" source="bMypyMYFsJgvA4w04-MM-18" target="bMypyMYFsJgvA4w04-MM-8" edge="1">
          <mxGeometry relative="1" as="geometry" />
        </mxCell>
        <mxCell id="bMypyMYFsJgvA4w04-MM-20" value="&amp;nbsp;call&amp;nbsp;" style="edgeLabel;html=1;align=center;verticalAlign=middle;resizable=0;points=[];" parent="bMypyMYFsJgvA4w04-MM-19" vertex="1" connectable="0">
          <mxGeometry x="-0.0063" y="-1" relative="1" as="geometry">
            <mxPoint as="offset" />
          </mxGeometry>
        </mxCell>
        <mxCell id="8XJsudTFEaAcroN3z3Og-29" style="edgeStyle=orthogonalEdgeStyle;rounded=0;orthogonalLoop=1;jettySize=auto;html=1;endArrow=block;endFill=0;endSize=16;" edge="1" parent="1" source="bMypyMYFsJgvA4w04-MM-21" target="8XJsudTFEaAcroN3z3Og-15">
          <mxGeometry relative="1" as="geometry" />
        </mxCell>
        <mxCell id="bMypyMYFsJgvA4w04-MM-21" value="PlayerRunState" style="swimlane;fontStyle=1;align=center;verticalAlign=top;childLayout=stackLayout;horizontal=1;startSize=26;horizontalStack=0;resizeParent=1;resizeParentMax=0;resizeLast=0;collapsible=1;marginBottom=0;whiteSpace=wrap;html=1;" parent="1" vertex="1">
          <mxGeometry x="870" y="346" width="160" height="138" as="geometry" />
        </mxCell>
        <mxCell id="8XJsudTFEaAcroN3z3Og-40" value="controller" style="text;strokeColor=none;fillColor=none;align=left;verticalAlign=top;spacingLeft=4;spacingRight=4;overflow=hidden;rotatable=0;points=[[0,0.5],[1,0.5]];portConstraint=eastwest;whiteSpace=wrap;html=1;" vertex="1" parent="bMypyMYFsJgvA4w04-MM-21">
          <mxGeometry y="26" width="160" height="26" as="geometry" />
        </mxCell>
        <mxCell id="bMypyMYFsJgvA4w04-MM-23" value="" style="line;strokeWidth=1;fillColor=none;align=left;verticalAlign=middle;spacingTop=-1;spacingLeft=3;spacingRight=3;rotatable=0;labelPosition=right;points=[];portConstraint=eastwest;strokeColor=inherit;" parent="bMypyMYFsJgvA4w04-MM-21" vertex="1">
          <mxGeometry y="52" width="160" height="8" as="geometry" />
        </mxCell>
        <mxCell id="8XJsudTFEaAcroN3z3Og-51" value="Enter()" style="text;strokeColor=none;fillColor=none;align=left;verticalAlign=top;spacingLeft=4;spacingRight=4;overflow=hidden;rotatable=0;points=[[0,0.5],[1,0.5]];portConstraint=eastwest;whiteSpace=wrap;html=1;" vertex="1" parent="bMypyMYFsJgvA4w04-MM-21">
          <mxGeometry y="60" width="160" height="26" as="geometry" />
        </mxCell>
        <mxCell id="bMypyMYFsJgvA4w04-MM-24" value="Excute()" style="text;strokeColor=none;fillColor=none;align=left;verticalAlign=top;spacingLeft=4;spacingRight=4;overflow=hidden;rotatable=0;points=[[0,0.5],[1,0.5]];portConstraint=eastwest;whiteSpace=wrap;html=1;" parent="bMypyMYFsJgvA4w04-MM-21" vertex="1">
          <mxGeometry y="86" width="160" height="26" as="geometry" />
        </mxCell>
        <mxCell id="8XJsudTFEaAcroN3z3Og-50" value="Exit()" style="text;strokeColor=none;fillColor=none;align=left;verticalAlign=top;spacingLeft=4;spacingRight=4;overflow=hidden;rotatable=0;points=[[0,0.5],[1,0.5]];portConstraint=eastwest;whiteSpace=wrap;html=1;" vertex="1" parent="bMypyMYFsJgvA4w04-MM-21">
          <mxGeometry y="112" width="160" height="26" as="geometry" />
        </mxCell>
        <mxCell id="bMypyMYFsJgvA4w04-MM-25" style="edgeStyle=orthogonalEdgeStyle;rounded=0;orthogonalLoop=1;jettySize=auto;html=1;" parent="1" source="bMypyMYFsJgvA4w04-MM-24" target="bMypyMYFsJgvA4w04-MM-8" edge="1">
          <mxGeometry relative="1" as="geometry" />
        </mxCell>
        <mxCell id="bMypyMYFsJgvA4w04-MM-26" value="&amp;nbsp;call&amp;nbsp;" style="edgeLabel;html=1;align=center;verticalAlign=middle;resizable=0;points=[];" parent="bMypyMYFsJgvA4w04-MM-25" vertex="1" connectable="0">
          <mxGeometry x="-0.4786" relative="1" as="geometry">
            <mxPoint as="offset" />
          </mxGeometry>
        </mxCell>
        <mxCell id="8XJsudTFEaAcroN3z3Og-30" style="edgeStyle=orthogonalEdgeStyle;rounded=0;orthogonalLoop=1;jettySize=auto;html=1;endArrow=block;endFill=0;endSize=16;" edge="1" parent="1" source="bMypyMYFsJgvA4w04-MM-27" target="8XJsudTFEaAcroN3z3Og-15">
          <mxGeometry relative="1" as="geometry" />
        </mxCell>
        <mxCell id="bMypyMYFsJgvA4w04-MM-27" value="PlayerStrollingState" style="swimlane;fontStyle=1;align=center;verticalAlign=top;childLayout=stackLayout;horizontal=1;startSize=26;horizontalStack=0;resizeParent=1;resizeParentMax=0;resizeLast=0;collapsible=1;marginBottom=0;whiteSpace=wrap;html=1;" parent="1" vertex="1">
          <mxGeometry x="870" y="520" width="160" height="138" as="geometry" />
        </mxCell>
        <mxCell id="8XJsudTFEaAcroN3z3Og-46" value="controller" style="text;strokeColor=none;fillColor=none;align=left;verticalAlign=top;spacingLeft=4;spacingRight=4;overflow=hidden;rotatable=0;points=[[0,0.5],[1,0.5]];portConstraint=eastwest;whiteSpace=wrap;html=1;" vertex="1" parent="bMypyMYFsJgvA4w04-MM-27">
          <mxGeometry y="26" width="160" height="26" as="geometry" />
        </mxCell>
        <mxCell id="bMypyMYFsJgvA4w04-MM-29" value="" style="line;strokeWidth=1;fillColor=none;align=left;verticalAlign=middle;spacingTop=-1;spacingLeft=3;spacingRight=3;rotatable=0;labelPosition=right;points=[];portConstraint=eastwest;strokeColor=inherit;" parent="bMypyMYFsJgvA4w04-MM-27" vertex="1">
          <mxGeometry y="52" width="160" height="8" as="geometry" />
        </mxCell>
        <mxCell id="8XJsudTFEaAcroN3z3Og-49" value="Enter()" style="text;strokeColor=none;fillColor=none;align=left;verticalAlign=top;spacingLeft=4;spacingRight=4;overflow=hidden;rotatable=0;points=[[0,0.5],[1,0.5]];portConstraint=eastwest;whiteSpace=wrap;html=1;" vertex="1" parent="bMypyMYFsJgvA4w04-MM-27">
          <mxGeometry y="60" width="160" height="26" as="geometry" />
        </mxCell>
        <mxCell id="bMypyMYFsJgvA4w04-MM-30" value="Execute()" style="text;strokeColor=none;fillColor=none;align=left;verticalAlign=top;spacingLeft=4;spacingRight=4;overflow=hidden;rotatable=0;points=[[0,0.5],[1,0.5]];portConstraint=eastwest;whiteSpace=wrap;html=1;" parent="bMypyMYFsJgvA4w04-MM-27" vertex="1">
          <mxGeometry y="86" width="160" height="26" as="geometry" />
        </mxCell>
        <mxCell id="8XJsudTFEaAcroN3z3Og-48" value="Exit()" style="text;strokeColor=none;fillColor=none;align=left;verticalAlign=top;spacingLeft=4;spacingRight=4;overflow=hidden;rotatable=0;points=[[0,0.5],[1,0.5]];portConstraint=eastwest;whiteSpace=wrap;html=1;" vertex="1" parent="bMypyMYFsJgvA4w04-MM-27">
          <mxGeometry y="112" width="160" height="26" as="geometry" />
        </mxCell>
        <mxCell id="bMypyMYFsJgvA4w04-MM-31" style="edgeStyle=orthogonalEdgeStyle;rounded=0;orthogonalLoop=1;jettySize=auto;html=1;" parent="1" source="bMypyMYFsJgvA4w04-MM-30" target="bMypyMYFsJgvA4w04-MM-8" edge="1">
          <mxGeometry relative="1" as="geometry" />
        </mxCell>
        <mxCell id="bMypyMYFsJgvA4w04-MM-32" value="&amp;nbsp;call&amp;nbsp;" style="edgeLabel;html=1;align=center;verticalAlign=middle;resizable=0;points=[];" parent="bMypyMYFsJgvA4w04-MM-31" vertex="1" connectable="0">
          <mxGeometry x="-0.7185" y="1" relative="1" as="geometry">
            <mxPoint as="offset" />
          </mxGeometry>
        </mxCell>
        <mxCell id="bMypyMYFsJgvA4w04-MM-33" style="edgeStyle=orthogonalEdgeStyle;rounded=0;orthogonalLoop=1;jettySize=auto;html=1;dashed=1;fillColor=#e51400;strokeColor=#B20000;" parent="1" source="bMypyMYFsJgvA4w04-MM-30" target="bMypyMYFsJgvA4w04-MM-6" edge="1">
          <mxGeometry relative="1" as="geometry">
            <Array as="points">
              <mxPoint x="830" y="620" />
              <mxPoint x="830" y="259" />
            </Array>
          </mxGeometry>
        </mxCell>
        <mxCell id="bMypyMYFsJgvA4w04-MM-34" style="edgeStyle=orthogonalEdgeStyle;rounded=0;orthogonalLoop=1;jettySize=auto;html=1;dashed=1;fillColor=#e51400;strokeColor=#B20000;" parent="1" source="bMypyMYFsJgvA4w04-MM-24" target="bMypyMYFsJgvA4w04-MM-6" edge="1">
          <mxGeometry relative="1" as="geometry">
            <Array as="points">
              <mxPoint x="730" y="445" />
              <mxPoint x="730" y="269" />
            </Array>
          </mxGeometry>
        </mxCell>
        <mxCell id="bMypyMYFsJgvA4w04-MM-35" style="edgeStyle=orthogonalEdgeStyle;rounded=0;orthogonalLoop=1;jettySize=auto;html=1;dashed=1;fillColor=#e51400;strokeColor=#B20000;" parent="1" source="bMypyMYFsJgvA4w04-MM-18" target="bMypyMYFsJgvA4w04-MM-6" edge="1">
          <mxGeometry relative="1" as="geometry">
            <Array as="points">
              <mxPoint x="730" y="189" />
              <mxPoint x="730" y="269" />
            </Array>
          </mxGeometry>
        </mxCell>
        <mxCell id="bMypyMYFsJgvA4w04-MM-36" style="edgeStyle=orthogonalEdgeStyle;rounded=0;orthogonalLoop=1;jettySize=auto;html=1;dashed=1;fillColor=#e51400;strokeColor=#B20000;" parent="1" source="bMypyMYFsJgvA4w04-MM-18" target="bMypyMYFsJgvA4w04-MM-2" edge="1">
          <mxGeometry relative="1" as="geometry" />
        </mxCell>
        <mxCell id="bMypyMYFsJgvA4w04-MM-37" style="edgeStyle=orthogonalEdgeStyle;rounded=0;orthogonalLoop=1;jettySize=auto;html=1;fillColor=#e51400;strokeColor=#B20000;dashed=1;" parent="1" source="bMypyMYFsJgvA4w04-MM-24" target="bMypyMYFsJgvA4w04-MM-2" edge="1">
          <mxGeometry relative="1" as="geometry">
            <Array as="points">
              <mxPoint x="410" y="445" />
              <mxPoint x="410" y="199" />
            </Array>
          </mxGeometry>
        </mxCell>
        <mxCell id="bMypyMYFsJgvA4w04-MM-38" style="edgeStyle=orthogonalEdgeStyle;rounded=0;orthogonalLoop=1;jettySize=auto;html=1;fillColor=#e51400;strokeColor=#B20000;dashed=1;" parent="1" source="bMypyMYFsJgvA4w04-MM-30" target="bMypyMYFsJgvA4w04-MM-2" edge="1">
          <mxGeometry relative="1" as="geometry">
            <Array as="points">
              <mxPoint x="410" y="620" />
              <mxPoint x="410" y="199" />
            </Array>
          </mxGeometry>
        </mxCell>
        <mxCell id="8XJsudTFEaAcroN3z3Og-31" style="edgeStyle=orthogonalEdgeStyle;rounded=0;orthogonalLoop=1;jettySize=auto;html=1;endArrow=block;endFill=0;endSize=16;" edge="1" parent="1" source="8XJsudTFEaAcroN3z3Og-1" target="8XJsudTFEaAcroN3z3Og-15">
          <mxGeometry relative="1" as="geometry" />
        </mxCell>
        <mxCell id="8XJsudTFEaAcroN3z3Og-1" value="PlayerHoeingState" style="swimlane;fontStyle=1;align=center;verticalAlign=top;childLayout=stackLayout;horizontal=1;startSize=26;horizontalStack=0;resizeParent=1;resizeParentMax=0;resizeLast=0;collapsible=1;marginBottom=0;whiteSpace=wrap;html=1;" vertex="1" parent="1">
          <mxGeometry x="880" y="730" width="160" height="60" as="geometry" />
        </mxCell>
        <mxCell id="8XJsudTFEaAcroN3z3Og-3" value="" style="line;strokeWidth=1;fillColor=none;align=left;verticalAlign=middle;spacingTop=-1;spacingLeft=3;spacingRight=3;rotatable=0;labelPosition=right;points=[];portConstraint=eastwest;strokeColor=inherit;" vertex="1" parent="8XJsudTFEaAcroN3z3Og-1">
          <mxGeometry y="26" width="160" height="8" as="geometry" />
        </mxCell>
        <mxCell id="8XJsudTFEaAcroN3z3Og-4" value="Execute()" style="text;strokeColor=none;fillColor=none;align=left;verticalAlign=top;spacingLeft=4;spacingRight=4;overflow=hidden;rotatable=0;points=[[0,0.5],[1,0.5]];portConstraint=eastwest;whiteSpace=wrap;html=1;" vertex="1" parent="8XJsudTFEaAcroN3z3Og-1">
          <mxGeometry y="34" width="160" height="26" as="geometry" />
        </mxCell>
        <mxCell id="8XJsudTFEaAcroN3z3Og-15" value="IState&lt;div&gt;&lt;font style=&quot;font-size: 10px;&quot;&gt;&amp;lt;&amp;lt; interface&amp;gt;&amp;gt;&lt;/font&gt;&lt;/div&gt;" style="swimlane;fontStyle=1;align=center;verticalAlign=top;childLayout=stackLayout;horizontal=1;startSize=40;horizontalStack=0;resizeParent=1;resizeParentMax=0;resizeLast=0;collapsible=1;marginBottom=0;whiteSpace=wrap;html=1;" vertex="1" parent="1">
          <mxGeometry x="1310" y="220" width="160" height="126" as="geometry" />
        </mxCell>
        <mxCell id="8XJsudTFEaAcroN3z3Og-17" value="" style="line;strokeWidth=1;fillColor=none;align=left;verticalAlign=middle;spacingTop=-1;spacingLeft=3;spacingRight=3;rotatable=0;labelPosition=right;points=[];portConstraint=eastwest;strokeColor=inherit;" vertex="1" parent="8XJsudTFEaAcroN3z3Og-15">
          <mxGeometry y="40" width="160" height="8" as="geometry" />
        </mxCell>
        <mxCell id="8XJsudTFEaAcroN3z3Og-19" value="+ Enter()" style="text;strokeColor=none;fillColor=none;align=left;verticalAlign=top;spacingLeft=4;spacingRight=4;overflow=hidden;rotatable=0;points=[[0,0.5],[1,0.5]];portConstraint=eastwest;whiteSpace=wrap;html=1;" vertex="1" parent="8XJsudTFEaAcroN3z3Og-15">
          <mxGeometry y="48" width="160" height="26" as="geometry" />
        </mxCell>
        <mxCell id="8XJsudTFEaAcroN3z3Og-20" value="+ Execute()" style="text;strokeColor=none;fillColor=none;align=left;verticalAlign=top;spacingLeft=4;spacingRight=4;overflow=hidden;rotatable=0;points=[[0,0.5],[1,0.5]];portConstraint=eastwest;whiteSpace=wrap;html=1;" vertex="1" parent="8XJsudTFEaAcroN3z3Og-15">
          <mxGeometry y="74" width="160" height="26" as="geometry" />
        </mxCell>
        <mxCell id="8XJsudTFEaAcroN3z3Og-18" value="+ Exit()" style="text;strokeColor=none;fillColor=none;align=left;verticalAlign=top;spacingLeft=4;spacingRight=4;overflow=hidden;rotatable=0;points=[[0,0.5],[1,0.5]];portConstraint=eastwest;whiteSpace=wrap;html=1;" vertex="1" parent="8XJsudTFEaAcroN3z3Og-15">
          <mxGeometry y="100" width="160" height="26" as="geometry" />
        </mxCell>
        <mxCell id="8XJsudTFEaAcroN3z3Og-22" style="edgeStyle=orthogonalEdgeStyle;rounded=0;orthogonalLoop=1;jettySize=auto;html=1;endArrow=none;startFill=0;" edge="1" parent="1" source="8XJsudTFEaAcroN3z3Og-21" target="bMypyMYFsJgvA4w04-MM-5">
          <mxGeometry relative="1" as="geometry">
            <Array as="points">
              <mxPoint x="360" y="225" />
              <mxPoint x="360" y="270" />
            </Array>
          </mxGeometry>
        </mxCell>
        <mxCell id="8XJsudTFEaAcroN3z3Og-27" style="edgeStyle=orthogonalEdgeStyle;rounded=0;orthogonalLoop=1;jettySize=auto;html=1;endArrow=block;endFill=0;endSize=16;" edge="1" parent="1" source="8XJsudTFEaAcroN3z3Og-23" target="8XJsudTFEaAcroN3z3Og-15">
          <mxGeometry relative="1" as="geometry" />
        </mxCell>
        <mxCell id="8XJsudTFEaAcroN3z3Og-23" value="PlayerIdleState" style="swimlane;fontStyle=1;align=center;verticalAlign=top;childLayout=stackLayout;horizontal=1;startSize=26;horizontalStack=0;resizeParent=1;resizeParentMax=0;resizeLast=0;collapsible=1;marginBottom=0;whiteSpace=wrap;html=1;" vertex="1" parent="1">
          <mxGeometry x="870" y="-70" width="160" height="138" as="geometry" />
        </mxCell>
        <mxCell id="8XJsudTFEaAcroN3z3Og-45" value="controller" style="text;strokeColor=none;fillColor=none;align=left;verticalAlign=top;spacingLeft=4;spacingRight=4;overflow=hidden;rotatable=0;points=[[0,0.5],[1,0.5]];portConstraint=eastwest;whiteSpace=wrap;html=1;" vertex="1" parent="8XJsudTFEaAcroN3z3Og-23">
          <mxGeometry y="26" width="160" height="26" as="geometry" />
        </mxCell>
        <mxCell id="8XJsudTFEaAcroN3z3Og-25" value="" style="line;strokeWidth=1;fillColor=none;align=left;verticalAlign=middle;spacingTop=-1;spacingLeft=3;spacingRight=3;rotatable=0;labelPosition=right;points=[];portConstraint=eastwest;strokeColor=inherit;" vertex="1" parent="8XJsudTFEaAcroN3z3Og-23">
          <mxGeometry y="52" width="160" height="8" as="geometry" />
        </mxCell>
        <mxCell id="8XJsudTFEaAcroN3z3Og-54" value="Enter()" style="text;strokeColor=none;fillColor=none;align=left;verticalAlign=top;spacingLeft=4;spacingRight=4;overflow=hidden;rotatable=0;points=[[0,0.5],[1,0.5]];portConstraint=eastwest;whiteSpace=wrap;html=1;" vertex="1" parent="8XJsudTFEaAcroN3z3Og-23">
          <mxGeometry y="60" width="160" height="26" as="geometry" />
        </mxCell>
        <mxCell id="8XJsudTFEaAcroN3z3Og-26" value="Execute()" style="text;strokeColor=none;fillColor=none;align=left;verticalAlign=top;spacingLeft=4;spacingRight=4;overflow=hidden;rotatable=0;points=[[0,0.5],[1,0.5]];portConstraint=eastwest;whiteSpace=wrap;html=1;" vertex="1" parent="8XJsudTFEaAcroN3z3Og-23">
          <mxGeometry y="86" width="160" height="26" as="geometry" />
        </mxCell>
        <mxCell id="8XJsudTFEaAcroN3z3Og-55" value="+ item: attribute" style="text;strokeColor=none;fillColor=none;align=left;verticalAlign=top;spacingLeft=4;spacingRight=4;overflow=hidden;rotatable=0;points=[[0,0.5],[1,0.5]];portConstraint=eastwest;whiteSpace=wrap;html=1;" vertex="1" parent="8XJsudTFEaAcroN3z3Og-23">
          <mxGeometry y="112" width="160" height="26" as="geometry" />
        </mxCell>
        <mxCell id="8XJsudTFEaAcroN3z3Og-33" value="StateManager" style="swimlane;fontStyle=1;align=center;verticalAlign=top;childLayout=stackLayout;horizontal=1;startSize=26;horizontalStack=0;resizeParent=1;resizeParentMax=0;resizeLast=0;collapsible=1;marginBottom=0;whiteSpace=wrap;html=1;" vertex="1" parent="1">
          <mxGeometry x="-30" y="-120" width="160" height="86" as="geometry" />
        </mxCell>
        <mxCell id="8XJsudTFEaAcroN3z3Og-34" value="currentState" style="text;strokeColor=none;fillColor=none;align=left;verticalAlign=top;spacingLeft=4;spacingRight=4;overflow=hidden;rotatable=0;points=[[0,0.5],[1,0.5]];portConstraint=eastwest;whiteSpace=wrap;html=1;" vertex="1" parent="8XJsudTFEaAcroN3z3Og-33">
          <mxGeometry y="26" width="160" height="26" as="geometry" />
        </mxCell>
        <mxCell id="8XJsudTFEaAcroN3z3Og-35" value="" style="line;strokeWidth=1;fillColor=none;align=left;verticalAlign=middle;spacingTop=-1;spacingLeft=3;spacingRight=3;rotatable=0;labelPosition=right;points=[];portConstraint=eastwest;strokeColor=inherit;" vertex="1" parent="8XJsudTFEaAcroN3z3Og-33">
          <mxGeometry y="52" width="160" height="8" as="geometry" />
        </mxCell>
        <mxCell id="8XJsudTFEaAcroN3z3Og-36" value="ChangeState(&lt;b&gt;IState &lt;/b&gt;state)" style="text;strokeColor=none;fillColor=none;align=left;verticalAlign=top;spacingLeft=4;spacingRight=4;overflow=hidden;rotatable=0;points=[[0,0.5],[1,0.5]];portConstraint=eastwest;whiteSpace=wrap;html=1;" vertex="1" parent="8XJsudTFEaAcroN3z3Og-33">
          <mxGeometry y="60" width="160" height="26" as="geometry" />
        </mxCell>
        <mxCell id="8XJsudTFEaAcroN3z3Og-38" style="edgeStyle=orthogonalEdgeStyle;rounded=0;orthogonalLoop=1;jettySize=auto;html=1;endArrow=none;startFill=0;" edge="1" parent="1" source="8XJsudTFEaAcroN3z3Og-37" target="8XJsudTFEaAcroN3z3Og-33">
          <mxGeometry relative="1" as="geometry" />
        </mxCell>
        <mxCell id="8XJsudTFEaAcroN3z3Og-39" style="edgeStyle=orthogonalEdgeStyle;rounded=0;orthogonalLoop=1;jettySize=auto;html=1;endArrow=none;startFill=0;" edge="1" parent="1" source="8XJsudTFEaAcroN3z3Og-34" target="8XJsudTFEaAcroN3z3Og-15">
          <mxGeometry relative="1" as="geometry">
            <Array as="points">
              <mxPoint x="1510" y="-80" />
              <mxPoint x="1510" y="283" />
            </Array>
          </mxGeometry>
        </mxCell>
        <mxCell id="8XJsudTFEaAcroN3z3Og-41" style="edgeStyle=orthogonalEdgeStyle;rounded=0;orthogonalLoop=1;jettySize=auto;html=1;fillColor=#e51400;strokeColor=#B20000;dashed=1;" edge="1" parent="1" source="bMypyMYFsJgvA4w04-MM-8" target="bMypyMYFsJgvA4w04-MM-2">
          <mxGeometry relative="1" as="geometry" />
        </mxCell>
      </root>
    </mxGraphModel>
  </diagram>
</mxfile>
